<svg width="1830" height="2851" viewBox="0 0 1830 2851" fill="none" xmlns="http://www.w3.org/2000/svg">
<rect width="1830" height="2851" fill="#E5E5E5"/>
<rect width="1776" height="1872" transform="translate(54)" fill="#070D14"/>
<g filter="url(#filter0_d)">
<rect x="468" y="106" width="948" height="790" rx="10.8219" fill="#131520"/>
</g>
<g filter="url(#filter1_dd)">
<rect x="468" y="988" width="948" height="238" rx="10.8219" fill="#131520"/>
</g>
<rect x="625" y="253" width="634" height="80" rx="10" fill="#C4C4C4" fill-opacity="0.32"/>
<rect x="625" y="588" width="634" height="80" rx="10" fill="#C4C4C4" fill-opacity="0.32"/>
<rect x="625" y="377" width="634" height="167" rx="10" fill="#C4C4C4" fill-opacity="0.32"/>
<rect x="625" y="718.637" width="278.21" height="81.3632" rx="20" fill="#297AC5"/>
<path d="M684.093 766.032H675.709L674.365 770H668.637L676.765 747.536H683.101L691.229 770H685.437L684.093 766.032ZM682.685 761.808L679.901 753.584L677.149 761.808H682.685ZM702.119 747.536C704.487 747.536 706.556 748.005 708.327 748.944C710.097 749.883 711.463 751.205 712.423 752.912C713.404 754.597 713.895 756.549 713.895 758.768C713.895 760.965 713.404 762.917 712.423 764.624C711.463 766.331 710.087 767.653 708.295 768.592C706.524 769.531 704.465 770 702.119 770H693.703V747.536H702.119ZM701.767 765.264C703.836 765.264 705.447 764.699 706.599 763.568C707.751 762.437 708.327 760.837 708.327 758.768C708.327 756.699 707.751 755.088 706.599 753.936C705.447 752.784 703.836 752.208 701.767 752.208H699.175V765.264H701.767ZM725.369 747.536C727.737 747.536 729.806 748.005 731.577 748.944C733.347 749.883 734.713 751.205 735.673 752.912C736.654 754.597 737.145 756.549 737.145 758.768C737.145 760.965 736.654 762.917 735.673 764.624C734.713 766.331 733.337 767.653 731.545 768.592C729.774 769.531 727.715 770 725.369 770H716.953V747.536H725.369ZM725.017 765.264C727.086 765.264 728.697 764.699 729.849 763.568C731.001 762.437 731.577 760.837 731.577 758.768C731.577 756.699 731.001 755.088 729.849 753.936C728.697 752.784 727.086 752.208 725.017 752.208H722.425V765.264H725.017ZM760.968 766.032H752.584L751.24 770H745.512L753.64 747.536H759.976L768.104 770H762.312L760.968 766.032ZM759.56 761.808L756.776 753.584L754.024 761.808H759.56ZM793.519 747.536V751.92H787.567V770H782.095V751.92H776.143V747.536H793.519ZM810.249 766.032H801.865L800.521 770H794.793L802.921 747.536H809.257L817.385 770H811.593L810.249 766.032ZM808.841 761.808L806.057 753.584L803.305 761.808H808.841ZM827.987 770.224C826.344 770.224 824.872 769.957 823.571 769.424C822.27 768.891 821.224 768.101 820.435 767.056C819.667 766.011 819.262 764.752 819.219 763.28H825.043C825.128 764.112 825.416 764.752 825.907 765.2C826.398 765.627 827.038 765.84 827.827 765.84C828.638 765.84 829.278 765.659 829.747 765.296C830.216 764.912 830.451 764.389 830.451 763.728C830.451 763.173 830.259 762.715 829.875 762.352C829.512 761.989 829.054 761.691 828.499 761.456C827.966 761.221 827.198 760.955 826.195 760.656C824.744 760.208 823.56 759.76 822.643 759.312C821.726 758.864 820.936 758.203 820.275 757.328C819.614 756.453 819.283 755.312 819.283 753.904C819.283 751.813 820.04 750.181 821.555 749.008C823.07 747.813 825.043 747.216 827.475 747.216C829.95 747.216 831.944 747.813 833.459 749.008C834.974 750.181 835.784 751.824 835.891 753.936H829.971C829.928 753.211 829.662 752.645 829.171 752.24C828.68 751.813 828.051 751.6 827.283 751.6C826.622 751.6 826.088 751.781 825.683 752.144C825.278 752.485 825.075 752.987 825.075 753.648C825.075 754.373 825.416 754.939 826.099 755.344C826.782 755.749 827.848 756.187 829.299 756.656C830.75 757.147 831.923 757.616 832.819 758.064C833.736 758.512 834.526 759.163 835.187 760.016C835.848 760.869 836.179 761.968 836.179 763.312C836.179 764.592 835.848 765.755 835.187 766.8C834.547 767.845 833.608 768.677 832.371 769.296C831.134 769.915 829.672 770.224 827.987 770.224ZM852.571 770L845.019 760.08V770H839.547V747.536H845.019V757.392L852.507 747.536H858.939L850.235 758.544L859.259 770H852.571Z" fill="white"/>
<rect x="981" y="719" width="278.21" height="81.3632" rx="20" fill="#BF3535"/>
<path d="M1070.17 759.099C1070.17 756.881 1070.65 754.907 1071.61 753.179C1072.57 751.43 1073.9 750.075 1075.61 749.115C1077.33 748.134 1079.29 747.643 1081.46 747.643C1084.13 747.643 1086.41 748.347 1088.31 749.755C1090.21 751.163 1091.48 753.083 1092.12 755.515H1086.1C1085.65 754.577 1085.01 753.862 1084.18 753.371C1083.37 752.881 1082.44 752.635 1081.4 752.635C1079.71 752.635 1078.35 753.222 1077.3 754.395C1076.26 755.569 1075.73 757.137 1075.73 759.099C1075.73 761.062 1076.26 762.63 1077.3 763.803C1078.35 764.977 1079.71 765.563 1081.4 765.563C1082.44 765.563 1083.37 765.318 1084.18 764.827C1085.01 764.337 1085.65 763.622 1086.1 762.683H1092.12C1091.48 765.115 1090.21 767.035 1088.31 768.443C1086.41 769.83 1084.13 770.523 1081.46 770.523C1079.29 770.523 1077.33 770.043 1075.61 769.083C1073.9 768.102 1072.57 766.747 1071.61 765.019C1070.65 763.291 1070.17 761.318 1070.17 759.099ZM1100.94 766.139H1108.11V770.363H1095.47V747.899H1100.94V766.139ZM1121.34 770.587C1119.23 770.587 1117.29 770.097 1115.52 769.115C1113.77 768.134 1112.37 766.769 1111.33 765.019C1110.3 763.249 1109.79 761.265 1109.79 759.067C1109.79 756.87 1110.3 754.897 1111.33 753.147C1112.37 751.398 1113.77 750.033 1115.52 749.051C1117.29 748.07 1119.23 747.579 1121.34 747.579C1123.45 747.579 1125.39 748.07 1127.13 749.051C1128.91 750.033 1130.29 751.398 1131.29 753.147C1132.32 754.897 1132.83 756.87 1132.83 759.067C1132.83 761.265 1132.32 763.249 1131.29 765.019C1130.27 766.769 1128.88 768.134 1127.13 769.115C1125.39 770.097 1123.45 770.587 1121.34 770.587ZM1121.34 765.595C1123.13 765.595 1124.56 764.998 1125.63 763.803C1126.72 762.609 1127.26 761.03 1127.26 759.067C1127.26 757.083 1126.72 755.505 1125.63 754.331C1124.56 753.137 1123.13 752.539 1121.34 752.539C1119.53 752.539 1118.08 753.126 1116.99 754.299C1115.92 755.473 1115.39 757.062 1115.39 759.067C1115.39 761.051 1115.92 762.641 1116.99 763.835C1118.08 765.009 1119.53 765.595 1121.34 765.595ZM1144 770.587C1142.36 770.587 1140.89 770.321 1139.59 769.787C1138.29 769.254 1137.24 768.465 1136.45 767.419C1135.68 766.374 1135.28 765.115 1135.23 763.643H1141.06C1141.14 764.475 1141.43 765.115 1141.92 765.563C1142.41 765.99 1143.05 766.203 1143.84 766.203C1144.65 766.203 1145.29 766.022 1145.76 765.659C1146.23 765.275 1146.47 764.753 1146.47 764.091C1146.47 763.537 1146.27 763.078 1145.89 762.715C1145.53 762.353 1145.07 762.054 1144.51 761.819C1143.98 761.585 1143.21 761.318 1142.21 761.019C1140.76 760.571 1139.58 760.123 1138.66 759.675C1137.74 759.227 1136.95 758.566 1136.29 757.691C1135.63 756.817 1135.3 755.675 1135.3 754.267C1135.3 752.177 1136.06 750.545 1137.57 749.371C1139.09 748.177 1141.06 747.579 1143.49 747.579C1145.97 747.579 1147.96 748.177 1149.47 749.371C1150.99 750.545 1151.8 752.187 1151.91 754.299H1145.99C1145.94 753.574 1145.68 753.009 1145.19 752.603C1144.7 752.177 1144.07 751.963 1143.3 751.963C1142.64 751.963 1142.1 752.145 1141.7 752.507C1141.29 752.849 1141.09 753.35 1141.09 754.011C1141.09 754.737 1141.43 755.302 1142.11 755.707C1142.8 756.113 1143.86 756.55 1145.31 757.019C1146.77 757.51 1147.94 757.979 1148.83 758.427C1149.75 758.875 1150.54 759.526 1151.2 760.379C1151.86 761.233 1152.19 762.331 1152.19 763.675C1152.19 764.955 1151.86 766.118 1151.2 767.163C1150.56 768.209 1149.62 769.041 1148.39 769.659C1147.15 770.278 1145.69 770.587 1144 770.587ZM1161.03 752.283V756.827H1168.36V761.051H1161.03V765.979H1169.32V770.363H1155.56V747.899H1169.32V752.283H1161.03Z" fill="white"/>
<rect x="502" y="1016" width="194.309" height="181" rx="13.3088" fill="#297AC5"/>
<path d="M570.885 1041.73V1067H564.729V1051.84L559.077 1067H554.109L548.421 1051.81V1067H542.265V1041.73H549.537L556.629 1059.22L563.649 1041.73H570.885ZM574.088 1056.92C574.088 1054.86 574.472 1053.04 575.24 1051.48C576.032 1049.92 577.1 1048.72 578.444 1047.88C579.788 1047.04 581.288 1046.62 582.944 1046.62C584.36 1046.62 585.596 1046.91 586.652 1047.49C587.732 1048.06 588.56 1048.82 589.136 1049.76V1046.91H595.292V1067H589.136V1064.16C588.536 1065.09 587.696 1065.85 586.616 1066.42C585.56 1067 584.324 1067.29 582.908 1067.29C581.276 1067.29 579.788 1066.87 578.444 1066.03C577.1 1065.16 576.032 1063.95 575.24 1062.39C574.472 1060.81 574.088 1058.98 574.088 1056.92ZM589.136 1056.96C589.136 1055.42 588.704 1054.21 587.84 1053.32C587 1052.43 585.968 1051.99 584.744 1051.99C583.52 1051.99 582.476 1052.43 581.612 1053.32C580.772 1054.18 580.352 1055.38 580.352 1056.92C580.352 1058.46 580.772 1059.68 581.612 1060.59C582.476 1061.48 583.52 1061.92 584.744 1061.92C585.968 1061.92 587 1061.48 587.84 1060.59C588.704 1059.7 589.136 1058.49 589.136 1056.96ZM605.902 1050.26C606.622 1049.16 607.522 1048.29 608.602 1047.67C609.682 1047.02 610.882 1046.7 612.202 1046.7V1053.21H610.51C608.974 1053.21 607.822 1053.55 607.054 1054.22C606.286 1054.87 605.902 1056.02 605.902 1057.68V1067H599.746V1046.91H605.902V1050.26ZM613.92 1056.96C613.92 1054.87 614.34 1053.04 615.18 1051.48C616.044 1049.92 617.232 1048.72 618.744 1047.88C620.28 1047.04 622.032 1046.62 624 1046.62C626.52 1046.62 628.62 1047.28 630.3 1048.6C632.004 1049.92 633.12 1051.78 633.648 1054.18H627.096C626.544 1052.65 625.476 1051.88 623.892 1051.88C622.764 1051.88 621.864 1052.32 621.192 1053.21C620.52 1054.08 620.184 1055.32 620.184 1056.96C620.184 1058.59 620.52 1059.85 621.192 1060.74C621.864 1061.6 622.764 1062.03 623.892 1062.03C625.476 1062.03 626.544 1061.26 627.096 1059.73H633.648C633.12 1062.08 632.004 1063.93 630.3 1065.27C628.596 1066.62 626.496 1067.29 624 1067.29C622.032 1067.29 620.28 1066.87 618.744 1066.03C617.232 1065.19 616.044 1063.99 615.18 1062.43C614.34 1060.87 613.92 1059.04 613.92 1056.96ZM649.289 1046.7C651.593 1046.7 653.441 1047.46 654.833 1049C656.225 1050.51 656.921 1052.6 656.921 1055.26V1067H650.801V1056.09C650.801 1054.75 650.453 1053.7 649.757 1052.96C649.061 1052.22 648.125 1051.84 646.949 1051.84C645.773 1051.84 644.837 1052.22 644.141 1052.96C643.445 1053.7 643.097 1054.75 643.097 1056.09V1067H636.941V1040.36H643.097V1049.61C643.721 1048.72 644.573 1048.02 645.653 1047.49C646.733 1046.96 647.945 1046.7 649.289 1046.7Z" fill="white"/>
<path d="M561.828 1168.07C562.644 1167.42 563.016 1167.12 562.944 1167.17C565.296 1165.22 567.144 1163.63 568.488 1162.38C569.856 1161.13 571.008 1159.82 571.944 1158.46C572.88 1157.09 573.348 1155.76 573.348 1154.46C573.348 1153.48 573.12 1152.71 572.664 1152.16C572.208 1151.6 571.524 1151.33 570.612 1151.33C569.7 1151.33 568.98 1151.68 568.452 1152.37C567.948 1153.04 567.696 1154 567.696 1155.25H561.756C561.804 1153.21 562.236 1151.51 563.052 1150.14C563.892 1148.77 564.984 1147.76 566.328 1147.12C567.696 1146.47 569.208 1146.14 570.864 1146.14C573.72 1146.14 575.868 1146.88 577.308 1148.34C578.772 1149.8 579.504 1151.71 579.504 1154.06C579.504 1156.63 578.628 1159.02 576.876 1161.23C575.124 1163.41 572.892 1165.55 570.18 1167.64H579.9V1172.64H561.828V1168.07ZM582.61 1159.5C582.61 1155.37 583.402 1152.12 584.986 1149.74C586.594 1147.37 589.174 1146.18 592.726 1146.18C596.278 1146.18 598.846 1147.37 600.43 1149.74C602.038 1152.12 602.842 1155.37 602.842 1159.5C602.842 1163.68 602.038 1166.95 600.43 1169.33C598.846 1171.7 596.278 1172.89 592.726 1172.89C589.174 1172.89 586.594 1171.7 584.986 1169.33C583.402 1166.95 582.61 1163.68 582.61 1159.5ZM596.794 1159.5C596.794 1157.08 596.53 1155.22 596.002 1153.92C595.474 1152.6 594.382 1151.94 592.726 1151.94C591.07 1151.94 589.978 1152.6 589.45 1153.92C588.922 1155.22 588.658 1157.08 588.658 1159.5C588.658 1161.13 588.754 1162.49 588.946 1163.57C589.138 1164.62 589.522 1165.49 590.098 1166.16C590.698 1166.81 591.574 1167.13 592.726 1167.13C593.878 1167.13 594.742 1166.81 595.318 1166.16C595.918 1165.49 596.314 1164.62 596.506 1163.57C596.698 1162.49 596.794 1161.13 596.794 1159.5ZM605.879 1168.07C606.695 1167.42 607.067 1167.12 606.995 1167.17C609.347 1165.22 611.195 1163.63 612.539 1162.38C613.907 1161.13 615.059 1159.82 615.995 1158.46C616.931 1157.09 617.399 1155.76 617.399 1154.46C617.399 1153.48 617.171 1152.71 616.715 1152.16C616.259 1151.6 615.575 1151.33 614.663 1151.33C613.751 1151.33 613.031 1151.68 612.503 1152.37C611.999 1153.04 611.747 1154 611.747 1155.25H605.807C605.855 1153.21 606.287 1151.51 607.103 1150.14C607.943 1148.77 609.035 1147.76 610.379 1147.12C611.747 1146.47 613.259 1146.14 614.915 1146.14C617.771 1146.14 619.919 1146.88 621.359 1148.34C622.823 1149.8 623.555 1151.71 623.555 1154.06C623.555 1156.63 622.679 1159.02 620.927 1161.23C619.175 1163.41 616.943 1165.55 614.231 1167.64H623.951V1172.64H605.879V1168.07ZM626.013 1152.44V1146.72H635.985V1173H629.577V1152.44H626.013Z" fill="white"/>
<path d="M570.756 1122.6C571.98 1121.63 572.538 1121.18 572.43 1121.25C575.958 1118.34 578.73 1115.94 580.746 1114.07C582.798 1112.2 584.526 1110.24 585.93 1108.18C587.334 1106.13 588.036 1104.13 588.036 1102.19C588.036 1100.71 587.694 1099.56 587.01 1098.73C586.326 1097.91 585.3 1097.49 583.932 1097.49C582.564 1097.49 581.484 1098.01 580.692 1099.06C579.936 1100.07 579.558 1101.51 579.558 1103.38H570.648C570.72 1100.32 571.368 1097.76 572.592 1095.71C573.852 1093.66 575.49 1092.15 577.506 1091.17C579.558 1090.2 581.826 1089.72 584.31 1089.72C588.594 1089.72 591.816 1090.81 593.976 1093.01C596.172 1095.21 597.27 1098.07 597.27 1101.6C597.27 1105.45 595.956 1109.03 593.328 1112.34C590.7 1115.62 587.352 1118.82 583.284 1121.95H597.864V1129.46H570.756V1122.6ZM601.606 1122.6C602.83 1121.63 603.388 1121.18 603.28 1121.25C606.808 1118.34 609.58 1115.94 611.596 1114.07C613.648 1112.2 615.376 1110.24 616.78 1108.18C618.184 1106.13 618.886 1104.13 618.886 1102.19C618.886 1100.71 618.544 1099.56 617.86 1098.73C617.176 1097.91 616.15 1097.49 614.782 1097.49C613.414 1097.49 612.334 1098.01 611.542 1099.06C610.786 1100.07 610.408 1101.51 610.408 1103.38H601.498C601.57 1100.32 602.218 1097.76 603.442 1095.71C604.702 1093.66 606.34 1092.15 608.356 1091.17C610.408 1090.2 612.676 1089.72 615.16 1089.72C619.444 1089.72 622.666 1090.81 624.826 1093.01C627.022 1095.21 628.12 1098.07 628.12 1101.6C628.12 1105.45 626.806 1109.03 624.178 1112.34C621.55 1115.62 618.202 1118.82 614.134 1121.95H628.714V1129.46H601.606V1122.6Z" fill="white"/>
<path d="M768.12 1047.8C767.613 1046.87 766.88 1046.16 765.92 1045.68C764.987 1045.17 763.88 1044.92 762.6 1044.92C760.387 1044.92 758.613 1045.65 757.28 1047.12C755.947 1048.56 755.28 1050.49 755.28 1052.92C755.28 1055.51 755.973 1057.53 757.36 1059C758.773 1060.44 760.707 1061.16 763.16 1061.16C764.84 1061.16 766.253 1060.73 767.4 1059.88C768.573 1059.03 769.427 1057.8 769.96 1056.2H761.28V1051.16H776.16V1057.52C775.653 1059.23 774.787 1060.81 773.56 1062.28C772.36 1063.75 770.827 1064.93 768.96 1065.84C767.093 1066.75 764.987 1067.2 762.64 1067.2C759.867 1067.2 757.387 1066.6 755.2 1065.4C753.04 1064.17 751.347 1062.48 750.12 1060.32C748.92 1058.16 748.32 1055.69 748.32 1052.92C748.32 1050.15 748.92 1047.68 750.12 1045.52C751.347 1043.33 753.04 1041.64 755.2 1040.44C757.36 1039.21 759.827 1038.6 762.6 1038.6C765.96 1038.6 768.787 1039.41 771.08 1041.04C773.4 1042.67 774.933 1044.92 775.68 1047.8H768.12ZM790.109 1067.32C787.922 1067.32 785.949 1066.85 784.189 1065.92C782.455 1064.99 781.082 1063.65 780.069 1061.92C779.082 1060.19 778.589 1058.16 778.589 1055.84C778.589 1053.55 779.095 1051.53 780.109 1049.8C781.122 1048.04 782.509 1046.69 784.269 1045.76C786.029 1044.83 788.002 1044.36 790.189 1044.36C792.375 1044.36 794.349 1044.83 796.109 1045.76C797.869 1046.69 799.255 1048.04 800.269 1049.8C801.282 1051.53 801.789 1053.55 801.789 1055.84C801.789 1058.13 801.269 1060.16 800.229 1061.92C799.215 1063.65 797.815 1064.99 796.029 1065.92C794.269 1066.85 792.295 1067.32 790.109 1067.32ZM790.109 1061.4C791.415 1061.4 792.522 1060.92 793.429 1059.96C794.362 1059 794.829 1057.63 794.829 1055.84C794.829 1054.05 794.375 1052.68 793.469 1051.72C792.589 1050.76 791.495 1050.28 790.189 1050.28C788.855 1050.28 787.749 1050.76 786.869 1051.72C785.989 1052.65 785.549 1054.03 785.549 1055.84C785.549 1057.63 785.975 1059 786.829 1059.96C787.709 1060.92 788.802 1061.4 790.109 1061.4ZM832.174 1038.92V1044.4H820.734V1050.32H829.294V1055.64H820.734V1067H813.894V1038.92H832.174ZM845.929 1067.32C843.742 1067.32 841.769 1066.85 840.009 1065.92C838.276 1064.99 836.902 1063.65 835.889 1061.92C834.902 1060.19 834.409 1058.16 834.409 1055.84C834.409 1053.55 834.916 1051.53 835.929 1049.8C836.942 1048.04 838.329 1046.69 840.089 1045.76C841.849 1044.83 843.822 1044.36 846.009 1044.36C848.196 1044.36 850.169 1044.83 851.929 1045.76C853.689 1046.69 855.076 1048.04 856.089 1049.8C857.102 1051.53 857.609 1053.55 857.609 1055.84C857.609 1058.13 857.089 1060.16 856.049 1061.92C855.036 1063.65 853.636 1064.99 851.849 1065.92C850.089 1066.85 848.116 1067.32 845.929 1067.32ZM845.929 1061.4C847.236 1061.4 848.342 1060.92 849.249 1059.96C850.182 1059 850.649 1057.63 850.649 1055.84C850.649 1054.05 850.196 1052.68 849.289 1051.72C848.409 1050.76 847.316 1050.28 846.009 1050.28C844.676 1050.28 843.569 1050.76 842.689 1051.72C841.809 1052.65 841.369 1054.03 841.369 1055.84C841.369 1057.63 841.796 1059 842.649 1059.96C843.529 1060.92 844.622 1061.4 845.929 1061.4ZM868.078 1048.4C868.878 1047.17 869.878 1046.21 871.078 1045.52C872.278 1044.8 873.611 1044.44 875.078 1044.44V1051.68H873.198C871.491 1051.68 870.211 1052.05 869.358 1052.8C868.504 1053.52 868.078 1054.8 868.078 1056.64V1067H861.238V1044.68H868.078V1048.4ZM904.304 1062.04H893.824L892.144 1067H884.984L895.144 1038.92H903.064L913.224 1067H905.984L904.304 1062.04ZM902.544 1056.76L899.064 1046.48L895.624 1056.76H902.544ZM963.432 1038.92L956.113 1067H947.833L943.353 1048.52L938.713 1067H930.433L923.313 1038.92H930.633L934.673 1059.36L939.673 1038.92H947.193L951.993 1059.36L956.073 1038.92H963.432ZM965.503 1055.8C965.503 1053.51 965.929 1051.49 966.783 1049.76C967.663 1048.03 968.849 1046.69 970.343 1045.76C971.836 1044.83 973.503 1044.36 975.343 1044.36C976.916 1044.36 978.289 1044.68 979.463 1045.32C980.663 1045.96 981.583 1046.8 982.223 1047.84V1044.68H989.063V1067H982.223V1063.84C981.556 1064.88 980.623 1065.72 979.423 1066.36C978.249 1067 976.876 1067.32 975.303 1067.32C973.489 1067.32 971.836 1066.85 970.343 1065.92C968.849 1064.96 967.663 1063.61 966.783 1061.88C965.929 1060.12 965.503 1058.09 965.503 1055.8ZM982.223 1055.84C982.223 1054.13 981.743 1052.79 980.783 1051.8C979.849 1050.81 978.703 1050.32 977.343 1050.32C975.983 1050.32 974.823 1050.81 973.863 1051.8C972.929 1052.76 972.463 1054.09 972.463 1055.8C972.463 1057.51 972.929 1058.87 973.863 1059.88C974.823 1060.87 975.983 1061.36 977.343 1061.36C978.703 1061.36 979.849 1060.87 980.783 1059.88C981.743 1058.89 982.223 1057.55 982.223 1055.84ZM1000.85 1037.4V1067H994.011V1037.4H1000.85ZM1019.45 1067L1012.65 1057.64V1067H1005.81V1037.4H1012.65V1053.76L1019.41 1044.68H1027.85L1018.57 1055.88L1027.93 1067H1019.45ZM1033.97 1042.36C1032.77 1042.36 1031.79 1042.01 1031.01 1041.32C1030.27 1040.6 1029.89 1039.72 1029.89 1038.68C1029.89 1037.61 1030.27 1036.73 1031.01 1036.04C1031.79 1035.32 1032.77 1034.96 1033.97 1034.96C1035.15 1034.96 1036.11 1035.32 1036.85 1036.04C1037.63 1036.73 1038.01 1037.61 1038.01 1038.68C1038.01 1039.72 1037.63 1040.6 1036.85 1041.32C1036.11 1042.01 1035.15 1042.36 1033.97 1042.36ZM1037.37 1044.68V1067H1030.53V1044.68H1037.37ZM1055.93 1044.44C1058.54 1044.44 1060.62 1045.29 1062.17 1047C1063.74 1048.68 1064.53 1051 1064.53 1053.96V1067H1057.73V1054.88C1057.73 1053.39 1057.34 1052.23 1056.57 1051.4C1055.8 1050.57 1054.76 1050.16 1053.45 1050.16C1052.14 1050.16 1051.1 1050.57 1050.33 1051.4C1049.56 1052.23 1049.17 1053.39 1049.17 1054.88V1067H1042.33V1044.68H1049.17V1047.64C1049.86 1046.65 1050.8 1045.88 1051.97 1045.32C1053.14 1044.73 1054.46 1044.44 1055.93 1044.44ZM1077.76 1044.36C1079.34 1044.36 1080.71 1044.68 1081.88 1045.32C1083.08 1045.96 1084 1046.8 1084.64 1047.84V1044.68H1091.48V1066.96C1091.48 1069.01 1091.07 1070.87 1090.24 1072.52C1089.44 1074.2 1088.2 1075.53 1086.52 1076.52C1084.87 1077.51 1082.8 1078 1080.32 1078C1077.02 1078 1074.34 1077.21 1072.28 1075.64C1070.23 1074.09 1069.06 1071.99 1068.76 1069.32H1075.52C1075.74 1070.17 1076.24 1070.84 1077.04 1071.32C1077.84 1071.83 1078.83 1072.08 1080 1072.08C1081.42 1072.08 1082.54 1071.67 1083.36 1070.84C1084.22 1070.04 1084.64 1068.75 1084.64 1066.96V1063.8C1083.98 1064.84 1083.06 1065.69 1081.88 1066.36C1080.71 1067 1079.34 1067.32 1077.76 1067.32C1075.92 1067.32 1074.26 1066.85 1072.76 1065.92C1071.27 1064.96 1070.08 1063.61 1069.2 1061.88C1068.35 1060.12 1067.92 1058.09 1067.92 1055.8C1067.92 1053.51 1068.35 1051.49 1069.2 1049.76C1070.08 1048.03 1071.27 1046.69 1072.76 1045.76C1074.26 1044.83 1075.92 1044.36 1077.76 1044.36ZM1084.64 1055.84C1084.64 1054.13 1084.16 1052.79 1083.2 1051.8C1082.27 1050.81 1081.12 1050.32 1079.76 1050.32C1078.4 1050.32 1077.24 1050.81 1076.28 1051.8C1075.35 1052.76 1074.88 1054.09 1074.88 1055.8C1074.88 1057.51 1075.35 1058.87 1076.28 1059.88C1077.24 1060.87 1078.4 1061.36 1079.76 1061.36C1081.12 1061.36 1082.27 1060.87 1083.2 1059.88C1084.16 1058.89 1084.64 1057.55 1084.64 1055.84Z" fill="white"/>
<path d="M751.032 1101.22H756.888V1103H748.848V1086.27H751.032V1101.22ZM764.943 1103.22C763.711 1103.22 762.591 1102.94 761.583 1102.38C760.591 1101.82 759.807 1101.02 759.231 1100C758.671 1098.96 758.391 1097.76 758.391 1096.4C758.391 1095.06 758.679 1093.87 759.255 1092.85C759.847 1091.81 760.647 1091.02 761.655 1090.47C762.663 1089.91 763.791 1089.63 765.039 1089.63C766.287 1089.63 767.415 1089.91 768.423 1090.47C769.431 1091.02 770.223 1091.8 770.799 1092.82C771.391 1093.85 771.687 1095.04 771.687 1096.4C771.687 1097.76 771.383 1098.96 770.775 1100C770.183 1101.02 769.375 1101.82 768.351 1102.38C767.327 1102.94 766.191 1103.22 764.943 1103.22ZM764.943 1101.3C765.727 1101.3 766.463 1101.11 767.151 1100.74C767.839 1100.38 768.391 1099.82 768.807 1099.09C769.239 1098.35 769.455 1097.46 769.455 1096.4C769.455 1095.34 769.247 1094.45 768.831 1093.71C768.415 1092.98 767.871 1092.43 767.199 1092.08C766.527 1091.71 765.799 1091.53 765.015 1091.53C764.215 1091.53 763.479 1091.71 762.807 1092.08C762.151 1092.43 761.623 1092.98 761.223 1093.71C760.823 1094.45 760.623 1095.34 760.623 1096.4C760.623 1097.47 760.815 1098.38 761.199 1099.11C761.599 1099.85 762.127 1100.4 762.783 1100.77C763.439 1101.12 764.159 1101.3 764.943 1101.3ZM776.743 1091.98C777.127 1091.23 777.671 1090.65 778.375 1090.23C779.095 1089.82 779.967 1089.61 780.991 1089.61V1091.86H780.415C777.967 1091.86 776.743 1093.19 776.743 1095.85V1103H774.559V1089.85H776.743V1091.98ZM795.512 1095.92C795.512 1096.34 795.488 1096.78 795.44 1097.24H784.928C785.008 1098.54 785.448 1099.55 786.248 1100.29C787.064 1101.01 788.048 1101.37 789.2 1101.37C790.144 1101.37 790.928 1101.15 791.552 1100.72C792.192 1100.27 792.64 1099.68 792.896 1098.94H795.248C794.896 1100.21 794.192 1101.24 793.136 1102.04C792.08 1102.82 790.768 1103.22 789.2 1103.22C787.952 1103.22 786.832 1102.94 785.84 1102.38C784.864 1101.82 784.096 1101.02 783.536 1100C782.976 1098.96 782.696 1097.76 782.696 1096.4C782.696 1095.04 782.968 1093.85 783.512 1092.82C784.056 1091.8 784.816 1091.02 785.792 1090.47C786.784 1089.91 787.92 1089.63 789.2 1089.63C790.448 1089.63 791.552 1089.9 792.512 1090.45C793.472 1090.99 794.208 1091.74 794.72 1092.7C795.248 1093.65 795.512 1094.72 795.512 1095.92ZM793.256 1095.46C793.256 1094.63 793.072 1093.92 792.704 1093.33C792.336 1092.72 791.832 1092.26 791.192 1091.96C790.568 1091.64 789.872 1091.48 789.104 1091.48C788 1091.48 787.056 1091.83 786.272 1092.54C785.504 1093.24 785.064 1094.22 784.952 1095.46H793.256ZM814.211 1089.61C815.235 1089.61 816.147 1089.82 816.947 1090.26C817.747 1090.67 818.379 1091.3 818.843 1092.15C819.307 1093 819.539 1094.03 819.539 1095.25V1103H817.379V1095.56C817.379 1094.25 817.051 1093.25 816.395 1092.56C815.755 1091.86 814.883 1091.5 813.779 1091.5C812.643 1091.5 811.739 1091.87 811.067 1092.61C810.395 1093.33 810.059 1094.38 810.059 1095.75V1103H807.899V1095.56C807.899 1094.25 807.571 1093.25 806.915 1092.56C806.275 1091.86 805.403 1091.5 804.299 1091.5C803.163 1091.5 802.259 1091.87 801.587 1092.61C800.915 1093.33 800.579 1094.38 800.579 1095.75V1103H798.395V1089.85H800.579V1091.74C801.011 1091.06 801.587 1090.53 802.307 1090.16C803.043 1089.79 803.851 1089.61 804.731 1089.61C805.835 1089.61 806.811 1089.86 807.659 1090.35C808.507 1090.85 809.139 1091.58 809.555 1092.54C809.923 1091.61 810.531 1090.89 811.379 1090.38C812.227 1089.86 813.171 1089.61 814.211 1089.61ZM831.704 1086.27V1103H829.52V1086.27H831.704ZM837.61 1092.27C838.042 1091.52 838.682 1090.9 839.53 1090.4C840.394 1089.89 841.394 1089.63 842.53 1089.63C843.698 1089.63 844.754 1089.91 845.698 1090.47C846.658 1091.03 847.41 1091.82 847.954 1092.85C848.498 1093.86 848.77 1095.03 848.77 1096.38C848.77 1097.7 848.498 1098.89 847.954 1099.93C847.41 1100.97 846.658 1101.78 845.698 1102.35C844.754 1102.93 843.698 1103.22 842.53 1103.22C841.41 1103.22 840.418 1102.97 839.554 1102.47C838.706 1101.96 838.058 1101.33 837.61 1100.58V1109.24H835.426V1089.85H837.61V1092.27ZM846.538 1096.38C846.538 1095.38 846.338 1094.52 845.938 1093.78C845.538 1093.05 844.994 1092.49 844.306 1092.1C843.634 1091.72 842.89 1091.53 842.074 1091.53C841.274 1091.53 840.53 1091.73 839.842 1092.13C839.17 1092.51 838.626 1093.08 838.21 1093.83C837.81 1094.57 837.61 1095.42 837.61 1096.4C837.61 1097.39 837.81 1098.26 838.21 1099.02C838.626 1099.75 839.17 1100.32 839.842 1100.72C840.53 1101.1 841.274 1101.3 842.074 1101.3C842.89 1101.3 843.634 1101.1 844.306 1100.72C844.994 1100.32 845.538 1099.75 845.938 1099.02C846.338 1098.26 846.538 1097.38 846.538 1096.38ZM856.301 1103.22C855.293 1103.22 854.389 1103.05 853.589 1102.71C852.789 1102.36 852.157 1101.88 851.693 1101.27C851.229 1100.65 850.973 1099.94 850.925 1099.14H853.181C853.245 1099.79 853.549 1100.33 854.093 1100.74C854.653 1101.16 855.381 1101.37 856.277 1101.37C857.109 1101.37 857.765 1101.18 858.245 1100.82C858.725 1100.45 858.965 1099.98 858.965 1099.42C858.965 1098.85 858.709 1098.42 858.197 1098.15C857.685 1097.86 856.893 1097.58 855.821 1097.31C854.845 1097.06 854.045 1096.8 853.421 1096.54C852.813 1096.27 852.285 1095.88 851.837 1095.37C851.405 1094.84 851.189 1094.15 851.189 1093.3C851.189 1092.63 851.389 1092.02 851.789 1091.46C852.189 1090.9 852.757 1090.46 853.493 1090.14C854.229 1089.8 855.069 1089.63 856.013 1089.63C857.469 1089.63 858.645 1090 859.541 1090.74C860.437 1091.47 860.917 1092.48 860.981 1093.76H858.797C858.749 1093.07 858.469 1092.52 857.957 1092.1C857.461 1091.69 856.789 1091.48 855.941 1091.48C855.157 1091.48 854.533 1091.65 854.069 1091.98C853.605 1092.32 853.373 1092.76 853.373 1093.3C853.373 1093.74 853.509 1094.1 853.781 1094.38C854.069 1094.66 854.421 1094.88 854.837 1095.06C855.269 1095.22 855.861 1095.4 856.613 1095.61C857.557 1095.86 858.325 1096.12 858.917 1096.38C859.509 1096.62 860.013 1096.98 860.429 1097.48C860.861 1097.98 861.085 1098.62 861.101 1099.42C861.101 1100.14 860.901 1100.79 860.501 1101.37C860.101 1101.94 859.533 1102.4 858.797 1102.74C858.077 1103.06 857.245 1103.22 856.301 1103.22ZM875.848 1089.85V1103H873.664V1101.06C873.248 1101.73 872.664 1102.26 871.912 1102.64C871.176 1103.01 870.36 1103.19 869.464 1103.19C868.44 1103.19 867.52 1102.98 866.704 1102.57C865.888 1102.14 865.24 1101.5 864.76 1100.65C864.296 1099.8 864.064 1098.77 864.064 1097.55V1089.85H866.224V1097.26C866.224 1098.56 866.552 1099.56 867.208 1100.26C867.864 1100.95 868.76 1101.3 869.896 1101.3C871.064 1101.3 871.984 1100.94 872.656 1100.22C873.328 1099.5 873.664 1098.45 873.664 1097.07V1089.85H875.848ZM895.352 1089.61C896.376 1089.61 897.288 1089.82 898.088 1090.26C898.888 1090.67 899.52 1091.3 899.984 1092.15C900.448 1093 900.68 1094.03 900.68 1095.25V1103H898.52V1095.56C898.52 1094.25 898.192 1093.25 897.536 1092.56C896.896 1091.86 896.024 1091.5 894.92 1091.5C893.784 1091.5 892.88 1091.87 892.208 1092.61C891.536 1093.33 891.2 1094.38 891.2 1095.75V1103H889.04V1095.56C889.04 1094.25 888.712 1093.25 888.056 1092.56C887.416 1091.86 886.544 1091.5 885.44 1091.5C884.304 1091.5 883.4 1091.87 882.728 1092.61C882.056 1093.33 881.72 1094.38 881.72 1095.75V1103H879.536V1089.85H881.72V1091.74C882.152 1091.06 882.728 1090.53 883.448 1090.16C884.184 1089.79 884.992 1089.61 885.872 1089.61C886.976 1089.61 887.952 1089.86 888.8 1090.35C889.648 1090.85 890.28 1091.58 890.696 1092.54C891.064 1091.61 891.672 1090.89 892.52 1090.38C893.368 1089.86 894.312 1089.61 895.352 1089.61ZM911.789 1087.71C911.373 1087.71 911.021 1087.57 910.733 1087.28C910.445 1086.99 910.301 1086.64 910.301 1086.22C910.301 1085.81 910.445 1085.46 910.733 1085.17C911.021 1084.88 911.373 1084.74 911.789 1084.74C912.189 1084.74 912.525 1084.88 912.797 1085.17C913.085 1085.46 913.229 1085.81 913.229 1086.22C913.229 1086.64 913.085 1086.99 912.797 1087.28C912.525 1087.57 912.189 1087.71 911.789 1087.71ZM912.845 1089.85V1103H910.661V1089.85H912.845ZM921.223 1103.22C920.215 1103.22 919.311 1103.05 918.511 1102.71C917.711 1102.36 917.079 1101.88 916.615 1101.27C916.151 1100.65 915.895 1099.94 915.847 1099.14H918.103C918.167 1099.79 918.471 1100.33 919.015 1100.74C919.575 1101.16 920.303 1101.37 921.199 1101.37C922.031 1101.37 922.687 1101.18 923.167 1100.82C923.647 1100.45 923.887 1099.98 923.887 1099.42C923.887 1098.85 923.631 1098.42 923.119 1098.15C922.607 1097.86 921.815 1097.58 920.743 1097.31C919.767 1097.06 918.967 1096.8 918.343 1096.54C917.735 1096.27 917.207 1095.88 916.759 1095.37C916.327 1094.84 916.111 1094.15 916.111 1093.3C916.111 1092.63 916.311 1092.02 916.711 1091.46C917.111 1090.9 917.679 1090.46 918.415 1090.14C919.151 1089.8 919.991 1089.63 920.935 1089.63C922.391 1089.63 923.567 1090 924.463 1090.74C925.359 1091.47 925.839 1092.48 925.903 1093.76H923.719C923.671 1093.07 923.391 1092.52 922.879 1092.1C922.383 1091.69 921.711 1091.48 920.863 1091.48C920.079 1091.48 919.455 1091.65 918.991 1091.98C918.527 1092.32 918.295 1092.76 918.295 1093.3C918.295 1093.74 918.431 1094.1 918.703 1094.38C918.991 1094.66 919.343 1094.88 919.759 1095.06C920.191 1095.22 920.783 1095.4 921.535 1095.61C922.479 1095.86 923.247 1096.12 923.839 1096.38C924.431 1096.62 924.935 1096.98 925.351 1097.48C925.783 1097.98 926.007 1098.62 926.023 1099.42C926.023 1100.14 925.823 1100.79 925.423 1101.37C925.023 1101.94 924.455 1102.4 923.719 1102.74C922.999 1103.06 922.167 1103.22 921.223 1103.22ZM940.16 1103.22C939.152 1103.22 938.248 1103.05 937.448 1102.71C936.648 1102.36 936.016 1101.88 935.552 1101.27C935.088 1100.65 934.832 1099.94 934.784 1099.14H937.04C937.104 1099.79 937.408 1100.33 937.952 1100.74C938.512 1101.16 939.24 1101.37 940.136 1101.37C940.968 1101.37 941.624 1101.18 942.104 1100.82C942.584 1100.45 942.824 1099.98 942.824 1099.42C942.824 1098.85 942.568 1098.42 942.056 1098.15C941.544 1097.86 940.752 1097.58 939.68 1097.31C938.704 1097.06 937.904 1096.8 937.28 1096.54C936.672 1096.27 936.144 1095.88 935.696 1095.37C935.264 1094.84 935.048 1094.15 935.048 1093.3C935.048 1092.63 935.248 1092.02 935.648 1091.46C936.048 1090.9 936.616 1090.46 937.352 1090.14C938.088 1089.8 938.928 1089.63 939.872 1089.63C941.328 1089.63 942.504 1090 943.4 1090.74C944.296 1091.47 944.776 1092.48 944.84 1093.76H942.656C942.608 1093.07 942.328 1092.52 941.816 1092.1C941.32 1091.69 940.648 1091.48 939.8 1091.48C939.016 1091.48 938.392 1091.65 937.928 1091.98C937.464 1092.32 937.232 1092.76 937.232 1093.3C937.232 1093.74 937.368 1094.1 937.64 1094.38C937.928 1094.66 938.28 1094.88 938.696 1095.06C939.128 1095.22 939.72 1095.4 940.472 1095.61C941.416 1095.86 942.184 1096.12 942.776 1096.38C943.368 1096.62 943.872 1096.98 944.288 1097.48C944.72 1097.98 944.944 1098.62 944.96 1099.42C944.96 1100.14 944.76 1100.79 944.36 1101.37C943.96 1101.94 943.392 1102.4 942.656 1102.74C941.936 1103.06 941.104 1103.22 940.16 1103.22ZM949.171 1087.71C948.755 1087.71 948.403 1087.57 948.115 1087.28C947.827 1086.99 947.683 1086.64 947.683 1086.22C947.683 1085.81 947.827 1085.46 948.115 1085.17C948.403 1084.88 948.755 1084.74 949.171 1084.74C949.571 1084.74 949.907 1084.88 950.179 1085.17C950.467 1085.46 950.611 1085.81 950.611 1086.22C950.611 1086.64 950.467 1086.99 950.179 1087.28C949.907 1087.57 949.571 1087.71 949.171 1087.71ZM950.227 1089.85V1103H948.043V1089.85H950.227ZM969.766 1089.61C970.79 1089.61 971.702 1089.82 972.502 1090.26C973.302 1090.67 973.934 1091.3 974.398 1092.15C974.862 1093 975.094 1094.03 975.094 1095.25V1103H972.934V1095.56C972.934 1094.25 972.606 1093.25 971.95 1092.56C971.31 1091.86 970.438 1091.5 969.334 1091.5C968.198 1091.5 967.294 1091.87 966.622 1092.61C965.95 1093.33 965.614 1094.38 965.614 1095.75V1103H963.454V1095.56C963.454 1094.25 963.126 1093.25 962.47 1092.56C961.83 1091.86 960.958 1091.5 959.854 1091.5C958.718 1091.5 957.814 1091.87 957.142 1092.61C956.47 1093.33 956.134 1094.38 956.134 1095.75V1103H953.95V1089.85H956.134V1091.74C956.566 1091.06 957.142 1090.53 957.862 1090.16C958.598 1089.79 959.406 1089.61 960.286 1089.61C961.39 1089.61 962.366 1089.86 963.214 1090.35C964.062 1090.85 964.694 1091.58 965.11 1092.54C965.478 1091.61 966.086 1090.89 966.934 1090.38C967.782 1089.86 968.726 1089.61 969.766 1089.61ZM980.86 1092.27C981.292 1091.52 981.932 1090.9 982.78 1090.4C983.644 1089.89 984.644 1089.63 985.78 1089.63C986.948 1089.63 988.004 1089.91 988.948 1090.47C989.908 1091.03 990.66 1091.82 991.204 1092.85C991.748 1093.86 992.02 1095.03 992.02 1096.38C992.02 1097.7 991.748 1098.89 991.204 1099.93C990.66 1100.97 989.908 1101.78 988.948 1102.35C988.004 1102.93 986.948 1103.22 985.78 1103.22C984.66 1103.22 983.668 1102.97 982.804 1102.47C981.956 1101.96 981.308 1101.33 980.86 1100.58V1109.24H978.676V1089.85H980.86V1092.27ZM989.788 1096.38C989.788 1095.38 989.588 1094.52 989.188 1093.78C988.788 1093.05 988.244 1092.49 987.556 1092.1C986.884 1091.72 986.14 1091.53 985.324 1091.53C984.524 1091.53 983.78 1091.73 983.092 1092.13C982.42 1092.51 981.876 1093.08 981.46 1093.83C981.06 1094.57 980.86 1095.42 980.86 1096.4C980.86 1097.39 981.06 1098.26 981.46 1099.02C981.876 1099.75 982.42 1100.32 983.092 1100.72C983.78 1101.1 984.524 1101.3 985.324 1101.3C986.14 1101.3 986.884 1101.1 987.556 1100.72C988.244 1100.32 988.788 1099.75 989.188 1099.02C989.588 1098.26 989.788 1097.38 989.788 1096.38ZM997.079 1085.24V1103H994.895V1085.24H997.079ZM1012.13 1089.85L1004.21 1109.19H1001.95L1004.55 1102.86L999.241 1089.85H1001.67L1005.79 1100.5L1009.87 1089.85H1012.13ZM1019.91 1096.38C1019.91 1095.03 1020.18 1093.86 1020.72 1092.85C1021.27 1091.82 1022.01 1091.03 1022.96 1090.47C1023.92 1089.91 1024.99 1089.63 1026.17 1089.63C1027.2 1089.63 1028.15 1089.87 1029.03 1090.35C1029.91 1090.82 1030.58 1091.43 1031.04 1092.2V1085.24H1033.25V1103H1031.04V1100.53C1030.61 1101.31 1029.97 1101.96 1029.12 1102.47C1028.28 1102.97 1027.28 1103.22 1026.15 1103.22C1024.98 1103.22 1023.92 1102.93 1022.96 1102.35C1022.01 1101.78 1021.27 1100.97 1020.72 1099.93C1020.18 1098.89 1019.91 1097.7 1019.91 1096.38ZM1031.04 1096.4C1031.04 1095.41 1030.84 1094.54 1030.44 1093.81C1030.04 1093.07 1029.5 1092.51 1028.81 1092.13C1028.14 1091.73 1027.4 1091.53 1026.58 1091.53C1025.76 1091.53 1025.02 1091.72 1024.35 1092.1C1023.68 1092.49 1023.14 1093.05 1022.74 1093.78C1022.34 1094.52 1022.14 1095.38 1022.14 1096.38C1022.14 1097.38 1022.34 1098.26 1022.74 1099.02C1023.14 1099.75 1023.68 1100.32 1024.35 1100.72C1025.02 1101.1 1025.76 1101.3 1026.58 1101.3C1027.4 1101.3 1028.14 1101.1 1028.81 1100.72C1029.5 1100.32 1030.04 1099.75 1030.44 1099.02C1030.84 1098.26 1031.04 1097.39 1031.04 1096.4ZM1048.61 1089.85V1103H1046.42V1101.06C1046.01 1101.73 1045.42 1102.26 1044.67 1102.64C1043.93 1103.01 1043.12 1103.19 1042.22 1103.19C1041.2 1103.19 1040.28 1102.98 1039.46 1102.57C1038.65 1102.14 1038 1101.5 1037.52 1100.65C1037.05 1099.8 1036.82 1098.77 1036.82 1097.55V1089.85H1038.98V1097.26C1038.98 1098.56 1039.31 1099.56 1039.97 1100.26C1040.62 1100.95 1041.52 1101.3 1042.65 1101.3C1043.82 1101.3 1044.74 1100.94 1045.41 1100.22C1046.09 1099.5 1046.42 1098.45 1046.42 1097.07V1089.85H1048.61ZM1068.11 1089.61C1069.13 1089.61 1070.05 1089.82 1070.85 1090.26C1071.65 1090.67 1072.28 1091.3 1072.74 1092.15C1073.21 1093 1073.44 1094.03 1073.44 1095.25V1103H1071.28V1095.56C1071.28 1094.25 1070.95 1093.25 1070.29 1092.56C1069.65 1091.86 1068.78 1091.5 1067.68 1091.5C1066.54 1091.5 1065.64 1091.87 1064.97 1092.61C1064.29 1093.33 1063.96 1094.38 1063.96 1095.75V1103H1061.8V1095.56C1061.8 1094.25 1061.47 1093.25 1060.81 1092.56C1060.17 1091.86 1059.3 1091.5 1058.2 1091.5C1057.06 1091.5 1056.16 1091.87 1055.49 1092.61C1054.81 1093.33 1054.48 1094.38 1054.48 1095.75V1103H1052.29V1089.85H1054.48V1091.74C1054.91 1091.06 1055.49 1090.53 1056.21 1090.16C1056.94 1089.79 1057.75 1089.61 1058.63 1089.61C1059.73 1089.61 1060.71 1089.86 1061.56 1090.35C1062.41 1090.85 1063.04 1091.58 1063.45 1092.54C1063.82 1091.61 1064.43 1090.89 1065.28 1090.38C1066.13 1089.86 1067.07 1089.61 1068.11 1089.61ZM1092.84 1089.61C1093.86 1089.61 1094.77 1089.82 1095.57 1090.26C1096.37 1090.67 1097 1091.3 1097.47 1092.15C1097.93 1093 1098.16 1094.03 1098.16 1095.25V1103H1096V1095.56C1096 1094.25 1095.68 1093.25 1095.02 1092.56C1094.38 1091.86 1093.51 1091.5 1092.4 1091.5C1091.27 1091.5 1090.36 1091.87 1089.69 1092.61C1089.02 1093.33 1088.68 1094.38 1088.68 1095.75V1103H1086.52V1095.56C1086.52 1094.25 1086.2 1093.25 1085.54 1092.56C1084.9 1091.86 1084.03 1091.5 1082.92 1091.5C1081.79 1091.5 1080.88 1091.87 1080.21 1092.61C1079.54 1093.33 1079.2 1094.38 1079.2 1095.75V1103H1077.02V1089.85H1079.2V1091.74C1079.64 1091.06 1080.21 1090.53 1080.93 1090.16C1081.67 1089.79 1082.48 1089.61 1083.36 1089.61C1084.46 1089.61 1085.44 1089.86 1086.28 1090.35C1087.13 1090.85 1087.76 1091.58 1088.18 1092.54C1088.55 1091.61 1089.16 1090.89 1090 1090.38C1090.85 1089.86 1091.8 1089.61 1092.84 1089.61ZM1113.07 1089.85L1105.15 1109.19H1102.9L1105.49 1102.86L1100.19 1089.85H1102.61L1106.74 1100.5L1110.82 1089.85H1113.07ZM1124.33 1091.65V1099.4C1124.33 1100.04 1124.47 1100.5 1124.74 1100.77C1125.01 1101.02 1125.48 1101.15 1126.16 1101.15H1127.76V1103H1125.8C1124.58 1103 1123.67 1102.72 1123.06 1102.16C1122.45 1101.6 1122.15 1100.68 1122.15 1099.4V1091.65H1120.44V1089.85H1122.15V1086.54H1124.33V1089.85H1127.76V1091.65H1124.33ZM1142.41 1095.92C1142.41 1096.34 1142.39 1096.78 1142.34 1097.24H1131.83C1131.91 1098.54 1132.35 1099.55 1133.15 1100.29C1133.96 1101.01 1134.95 1101.37 1136.1 1101.37C1137.04 1101.37 1137.83 1101.15 1138.45 1100.72C1139.09 1100.27 1139.54 1099.68 1139.79 1098.94H1142.15C1141.79 1100.21 1141.09 1101.24 1140.03 1102.04C1138.98 1102.82 1137.67 1103.22 1136.1 1103.22C1134.85 1103.22 1133.73 1102.94 1132.74 1102.38C1131.76 1101.82 1130.99 1101.02 1130.43 1100C1129.87 1098.96 1129.59 1097.76 1129.59 1096.4C1129.59 1095.04 1129.87 1093.85 1130.41 1092.82C1130.95 1091.8 1131.71 1091.02 1132.69 1090.47C1133.68 1089.91 1134.82 1089.63 1136.1 1089.63C1137.35 1089.63 1138.45 1089.9 1139.41 1090.45C1140.37 1090.99 1141.11 1091.74 1141.62 1092.7C1142.15 1093.65 1142.41 1094.72 1142.41 1095.92ZM1140.15 1095.46C1140.15 1094.63 1139.97 1093.92 1139.6 1093.33C1139.23 1092.72 1138.73 1092.26 1138.09 1091.96C1137.47 1091.64 1136.77 1091.48 1136 1091.48C1134.9 1091.48 1133.95 1091.83 1133.17 1092.54C1132.4 1093.24 1131.96 1094.22 1131.85 1095.46H1140.15ZM1152.16 1103L1149.04 1098.1L1146.04 1103H1143.76L1148.01 1096.47L1143.76 1089.85H1146.23L1149.35 1094.72L1152.33 1089.85H1154.61L1150.38 1096.35L1154.63 1103H1152.16ZM1159.44 1091.65V1099.4C1159.44 1100.04 1159.58 1100.5 1159.85 1100.77C1160.12 1101.02 1160.59 1101.15 1161.27 1101.15H1162.87V1103H1160.91C1159.69 1103 1158.78 1102.72 1158.17 1102.16C1157.56 1101.6 1157.26 1100.68 1157.26 1099.4V1091.65H1155.55V1089.85H1157.26V1086.54H1159.44V1089.85H1162.87V1091.65H1159.44ZM754.584 1139.22C753.352 1139.22 752.232 1138.94 751.224 1138.38C750.232 1137.82 749.448 1137.02 748.872 1136C748.312 1134.96 748.032 1133.76 748.032 1132.4C748.032 1131.06 748.32 1129.87 748.896 1128.85C749.488 1127.81 750.288 1127.02 751.296 1126.47C752.304 1125.91 753.432 1125.63 754.68 1125.63C755.928 1125.63 757.056 1125.91 758.064 1126.47C759.072 1127.02 759.864 1127.8 760.44 1128.82C761.032 1129.85 761.328 1131.04 761.328 1132.4C761.328 1133.76 761.024 1134.96 760.416 1136C759.824 1137.02 759.016 1137.82 757.992 1138.38C756.968 1138.94 755.832 1139.22 754.584 1139.22ZM754.584 1137.3C755.368 1137.3 756.104 1137.11 756.792 1136.74C757.48 1136.38 758.032 1135.82 758.448 1135.09C758.88 1134.35 759.096 1133.46 759.096 1132.4C759.096 1131.34 758.888 1130.45 758.472 1129.71C758.056 1128.98 757.512 1128.43 756.84 1128.08C756.168 1127.71 755.44 1127.53 754.656 1127.53C753.856 1127.53 753.12 1127.71 752.448 1128.08C751.792 1128.43 751.264 1128.98 750.864 1129.71C750.464 1130.45 750.264 1131.34 750.264 1132.4C750.264 1133.47 750.456 1134.38 750.84 1135.11C751.24 1135.85 751.768 1136.4 752.424 1136.77C753.08 1137.12 753.8 1137.3 754.584 1137.3ZM769.552 1127.65H766.792V1139H764.608V1127.65H762.904V1125.85H764.608V1124.91C764.608 1123.44 764.984 1122.37 765.736 1121.7C766.504 1121.01 767.728 1120.66 769.408 1120.66V1122.49C768.448 1122.49 767.768 1122.68 767.368 1123.06C766.984 1123.43 766.792 1124.05 766.792 1124.91V1125.85H769.552V1127.65ZM781.16 1127.65V1135.4C781.16 1136.04 781.296 1136.5 781.568 1136.77C781.84 1137.02 782.312 1137.15 782.984 1137.15H784.592V1139H782.624C781.408 1139 780.496 1138.72 779.888 1138.16C779.28 1137.6 778.976 1136.68 778.976 1135.4V1127.65H777.272V1125.85H778.976V1122.54H781.16V1125.85H784.592V1127.65H781.16ZM793.767 1125.61C794.759 1125.61 795.655 1125.82 796.455 1126.26C797.255 1126.67 797.879 1127.3 798.327 1128.15C798.791 1129 799.023 1130.03 799.023 1131.25V1139H796.863V1131.56C796.863 1130.25 796.535 1129.25 795.879 1128.56C795.223 1127.86 794.327 1127.5 793.191 1127.5C792.039 1127.5 791.119 1127.86 790.431 1128.58C789.759 1129.3 789.423 1130.35 789.423 1131.73V1139H787.239V1121.24H789.423V1127.72C789.855 1127.05 790.447 1126.53 791.199 1126.16C791.967 1125.79 792.823 1125.61 793.767 1125.61ZM814.59 1131.92C814.59 1132.34 814.566 1132.78 814.518 1133.24H804.006C804.086 1134.54 804.526 1135.55 805.326 1136.29C806.142 1137.01 807.126 1137.37 808.278 1137.37C809.222 1137.37 810.006 1137.15 810.63 1136.72C811.27 1136.27 811.718 1135.68 811.974 1134.94H814.326C813.974 1136.21 813.27 1137.24 812.214 1138.04C811.158 1138.82 809.846 1139.22 808.278 1139.22C807.03 1139.22 805.91 1138.94 804.918 1138.38C803.942 1137.82 803.174 1137.02 802.614 1136C802.054 1134.96 801.774 1133.76 801.774 1132.4C801.774 1131.04 802.046 1129.85 802.59 1128.82C803.134 1127.8 803.894 1127.02 804.87 1126.47C805.862 1125.91 806.998 1125.63 808.278 1125.63C809.526 1125.63 810.63 1125.9 811.59 1126.45C812.55 1126.99 813.286 1127.74 813.798 1128.7C814.326 1129.65 814.59 1130.72 814.59 1131.92ZM812.334 1131.46C812.334 1130.63 812.15 1129.92 811.782 1129.33C811.414 1128.72 810.91 1128.26 810.27 1127.96C809.646 1127.64 808.95 1127.48 808.182 1127.48C807.078 1127.48 806.134 1127.83 805.35 1128.54C804.582 1129.24 804.142 1130.22 804.03 1131.46H812.334ZM826.055 1128.27C826.487 1127.52 827.127 1126.9 827.975 1126.4C828.839 1125.89 829.839 1125.63 830.975 1125.63C832.143 1125.63 833.199 1125.91 834.143 1126.47C835.103 1127.03 835.855 1127.82 836.399 1128.85C836.943 1129.86 837.215 1131.03 837.215 1132.38C837.215 1133.7 836.943 1134.89 836.399 1135.93C835.855 1136.97 835.103 1137.78 834.143 1138.35C833.199 1138.93 832.143 1139.22 830.975 1139.22C829.855 1139.22 828.863 1138.97 827.999 1138.47C827.151 1137.96 826.503 1137.33 826.055 1136.58V1145.24H823.871V1125.85H826.055V1128.27ZM834.983 1132.38C834.983 1131.38 834.783 1130.52 834.383 1129.78C833.983 1129.05 833.439 1128.49 832.751 1128.1C832.079 1127.72 831.335 1127.53 830.519 1127.53C829.719 1127.53 828.975 1127.73 828.287 1128.13C827.615 1128.51 827.071 1129.08 826.655 1129.83C826.255 1130.57 826.055 1131.42 826.055 1132.4C826.055 1133.39 826.255 1134.26 826.655 1135.02C827.071 1135.75 827.615 1136.32 828.287 1136.72C828.975 1137.1 829.719 1137.3 830.519 1137.3C831.335 1137.3 832.079 1137.1 832.751 1136.72C833.439 1136.32 833.983 1135.75 834.383 1135.02C834.783 1134.26 834.983 1133.38 834.983 1132.38ZM842.274 1127.98C842.658 1127.23 843.202 1126.65 843.906 1126.23C844.626 1125.82 845.498 1125.61 846.522 1125.61V1127.86H845.946C843.498 1127.86 842.274 1129.19 842.274 1131.85V1139H840.09V1125.85H842.274V1127.98ZM850.171 1123.71C849.755 1123.71 849.403 1123.57 849.115 1123.28C848.827 1122.99 848.683 1122.64 848.683 1122.22C848.683 1121.81 848.827 1121.46 849.115 1121.17C849.403 1120.88 849.755 1120.74 850.171 1120.74C850.571 1120.74 850.907 1120.88 851.179 1121.17C851.467 1121.46 851.611 1121.81 851.611 1122.22C851.611 1122.64 851.467 1122.99 851.179 1123.28C850.907 1123.57 850.571 1123.71 850.171 1123.71ZM851.227 1125.85V1139H849.043V1125.85H851.227ZM861.358 1125.61C862.958 1125.61 864.254 1126.1 865.246 1127.07C866.238 1128.03 866.734 1129.42 866.734 1131.25V1139H864.574V1131.56C864.574 1130.25 864.246 1129.25 863.59 1128.56C862.934 1127.86 862.038 1127.5 860.902 1127.5C859.75 1127.5 858.83 1127.86 858.142 1128.58C857.47 1129.3 857.134 1130.35 857.134 1131.73V1139H854.95V1125.85H857.134V1127.72C857.566 1127.05 858.15 1126.53 858.886 1126.16C859.638 1125.79 860.462 1125.61 861.358 1125.61ZM872.965 1127.65V1135.4C872.965 1136.04 873.101 1136.5 873.373 1136.77C873.645 1137.02 874.117 1137.15 874.789 1137.15H876.397V1139H874.429C873.213 1139 872.301 1138.72 871.693 1138.16C871.085 1137.6 870.781 1136.68 870.781 1135.4V1127.65H869.077V1125.85H870.781V1122.54H872.965V1125.85H876.397V1127.65H872.965ZM880.171 1123.71C879.755 1123.71 879.403 1123.57 879.115 1123.28C878.827 1122.99 878.683 1122.64 878.683 1122.22C878.683 1121.81 878.827 1121.46 879.115 1121.17C879.403 1120.88 879.755 1120.74 880.171 1120.74C880.571 1120.74 880.907 1120.88 881.179 1121.17C881.467 1121.46 881.611 1121.81 881.611 1122.22C881.611 1122.64 881.467 1122.99 881.179 1123.28C880.907 1123.57 880.571 1123.71 880.171 1123.71ZM881.227 1125.85V1139H879.043V1125.85H881.227ZM891.358 1125.61C892.958 1125.61 894.254 1126.1 895.246 1127.07C896.238 1128.03 896.734 1129.42 896.734 1131.25V1139H894.574V1131.56C894.574 1130.25 894.246 1129.25 893.59 1128.56C892.934 1127.86 892.038 1127.5 890.902 1127.5C889.75 1127.5 888.83 1127.86 888.142 1128.58C887.47 1129.3 887.134 1130.35 887.134 1131.73V1139H884.95V1125.85H887.134V1127.72C887.566 1127.05 888.15 1126.53 888.886 1126.16C889.638 1125.79 890.462 1125.61 891.358 1125.61ZM905.725 1125.63C906.861 1125.63 907.853 1125.88 908.701 1126.38C909.565 1126.87 910.205 1127.5 910.621 1128.25V1125.85H912.829V1139.29C912.829 1140.49 912.573 1141.55 912.061 1142.48C911.549 1143.42 910.813 1144.16 909.853 1144.69C908.909 1145.22 907.805 1145.48 906.541 1145.48C904.813 1145.48 903.373 1145.07 902.221 1144.26C901.069 1143.44 900.389 1142.33 900.181 1140.92H902.341C902.581 1141.72 903.077 1142.36 903.829 1142.84C904.581 1143.34 905.485 1143.58 906.541 1143.58C907.741 1143.58 908.717 1143.21 909.469 1142.46C910.237 1141.7 910.621 1140.65 910.621 1139.29V1136.53C910.189 1137.3 909.549 1137.94 908.701 1138.45C907.853 1138.96 906.861 1139.22 905.725 1139.22C904.557 1139.22 903.493 1138.93 902.533 1138.35C901.589 1137.78 900.845 1136.97 900.301 1135.93C899.757 1134.89 899.485 1133.7 899.485 1132.38C899.485 1131.03 899.757 1129.86 900.301 1128.85C900.845 1127.82 901.589 1127.03 902.533 1126.47C903.493 1125.91 904.557 1125.63 905.725 1125.63ZM910.621 1132.4C910.621 1131.41 910.421 1130.54 910.021 1129.81C909.621 1129.07 909.077 1128.51 908.389 1128.13C907.717 1127.73 906.973 1127.53 906.157 1127.53C905.341 1127.53 904.597 1127.72 903.925 1128.1C903.253 1128.49 902.717 1129.05 902.317 1129.78C901.917 1130.52 901.717 1131.38 901.717 1132.38C901.717 1133.38 901.917 1134.26 902.317 1135.02C902.717 1135.75 903.253 1136.32 903.925 1136.72C904.597 1137.1 905.341 1137.3 906.157 1137.3C906.973 1137.3 907.717 1137.1 908.389 1136.72C909.077 1136.32 909.621 1135.75 910.021 1135.02C910.421 1134.26 910.621 1133.39 910.621 1132.4ZM922.102 1132.38C922.102 1131.03 922.374 1129.86 922.918 1128.85C923.462 1127.82 924.206 1127.03 925.15 1126.47C926.11 1125.91 927.174 1125.63 928.342 1125.63C929.494 1125.63 930.494 1125.88 931.342 1126.38C932.19 1126.87 932.822 1127.5 933.238 1128.25V1125.85H935.446V1139H933.238V1136.55C932.806 1137.32 932.158 1137.96 931.294 1138.47C930.446 1138.97 929.454 1139.22 928.318 1139.22C927.15 1139.22 926.094 1138.93 925.15 1138.35C924.206 1137.78 923.462 1136.97 922.918 1135.93C922.374 1134.89 922.102 1133.7 922.102 1132.38ZM933.238 1132.4C933.238 1131.41 933.038 1130.54 932.638 1129.81C932.238 1129.07 931.694 1128.51 931.006 1128.13C930.334 1127.73 929.59 1127.53 928.774 1127.53C927.958 1127.53 927.214 1127.72 926.542 1128.1C925.87 1128.49 925.334 1129.05 924.934 1129.78C924.534 1130.52 924.334 1131.38 924.334 1132.38C924.334 1133.38 924.534 1134.26 924.934 1135.02C925.334 1135.75 925.87 1136.32 926.542 1136.72C927.214 1137.1 927.958 1137.3 928.774 1137.3C929.59 1137.3 930.334 1137.1 931.006 1136.72C931.694 1136.32 932.238 1135.75 932.638 1135.02C933.038 1134.26 933.238 1133.39 933.238 1132.4ZM945.545 1125.61C947.145 1125.61 948.441 1126.1 949.433 1127.07C950.425 1128.03 950.921 1129.42 950.921 1131.25V1139H948.761V1131.56C948.761 1130.25 948.433 1129.25 947.777 1128.56C947.121 1127.86 946.225 1127.5 945.089 1127.5C943.937 1127.5 943.017 1127.86 942.329 1128.58C941.657 1129.3 941.321 1130.35 941.321 1131.73V1139H939.137V1125.85H941.321V1127.72C941.753 1127.05 942.337 1126.53 943.073 1126.16C943.825 1125.79 944.649 1125.61 945.545 1125.61ZM953.673 1132.38C953.673 1131.03 953.945 1129.86 954.489 1128.85C955.033 1127.82 955.777 1127.03 956.721 1126.47C957.681 1125.91 958.753 1125.63 959.937 1125.63C960.961 1125.63 961.913 1125.87 962.793 1126.35C963.673 1126.82 964.345 1127.43 964.809 1128.2V1121.24H967.017V1139H964.809V1136.53C964.377 1137.31 963.737 1137.96 962.889 1138.47C962.041 1138.97 961.049 1139.22 959.913 1139.22C958.745 1139.22 957.681 1138.93 956.721 1138.35C955.777 1137.78 955.033 1136.97 954.489 1135.93C953.945 1134.89 953.673 1133.7 953.673 1132.38ZM964.809 1132.4C964.809 1131.41 964.609 1130.54 964.209 1129.81C963.809 1129.07 963.265 1128.51 962.577 1128.13C961.905 1127.73 961.161 1127.53 960.345 1127.53C959.529 1127.53 958.785 1127.72 958.113 1128.1C957.441 1128.49 956.905 1129.05 956.505 1129.78C956.105 1130.52 955.905 1131.38 955.905 1132.38C955.905 1133.38 956.105 1134.26 956.505 1135.02C956.905 1135.75 957.441 1136.32 958.113 1136.72C958.785 1137.1 959.529 1137.3 960.345 1137.3C961.161 1137.3 961.905 1137.1 962.577 1136.72C963.265 1136.32 963.809 1135.75 964.209 1135.02C964.609 1134.26 964.809 1133.39 964.809 1132.4ZM979.77 1127.65V1135.4C979.77 1136.04 979.906 1136.5 980.178 1136.77C980.45 1137.02 980.922 1137.15 981.594 1137.15H983.202V1139H981.234C980.018 1139 979.106 1138.72 978.498 1138.16C977.89 1137.6 977.586 1136.68 977.586 1135.4V1127.65H975.882V1125.85H977.586V1122.54H979.77V1125.85H983.202V1127.65H979.77ZM997.176 1125.85L989.256 1145.19H987L989.592 1138.86L984.288 1125.85H986.712L990.84 1136.5L994.92 1125.85H997.176ZM1001.56 1128.27C1001.99 1127.52 1002.63 1126.9 1003.48 1126.4C1004.34 1125.89 1005.34 1125.63 1006.48 1125.63C1007.64 1125.63 1008.7 1125.91 1009.64 1126.47C1010.6 1127.03 1011.36 1127.82 1011.9 1128.85C1012.44 1129.86 1012.72 1131.03 1012.72 1132.38C1012.72 1133.7 1012.44 1134.89 1011.9 1135.93C1011.36 1136.97 1010.6 1137.78 1009.64 1138.35C1008.7 1138.93 1007.64 1139.22 1006.48 1139.22C1005.36 1139.22 1004.36 1138.97 1003.5 1138.47C1002.65 1137.96 1002 1137.33 1001.56 1136.58V1145.24H999.371V1125.85H1001.56V1128.27ZM1010.48 1132.38C1010.48 1131.38 1010.28 1130.52 1009.88 1129.78C1009.48 1129.05 1008.94 1128.49 1008.25 1128.1C1007.58 1127.72 1006.84 1127.53 1006.02 1127.53C1005.22 1127.53 1004.48 1127.73 1003.79 1128.13C1003.12 1128.51 1002.57 1129.08 1002.16 1129.83C1001.76 1130.57 1001.56 1131.42 1001.56 1132.4C1001.56 1133.39 1001.76 1134.26 1002.16 1135.02C1002.57 1135.75 1003.12 1136.32 1003.79 1136.72C1004.48 1137.1 1005.22 1137.3 1006.02 1137.3C1006.84 1137.3 1007.58 1137.1 1008.25 1136.72C1008.94 1136.32 1009.48 1135.75 1009.88 1135.02C1010.28 1134.26 1010.48 1133.38 1010.48 1132.38ZM1027.59 1131.92C1027.59 1132.34 1027.57 1132.78 1027.52 1133.24H1017.01C1017.09 1134.54 1017.53 1135.55 1018.33 1136.29C1019.14 1137.01 1020.13 1137.37 1021.28 1137.37C1022.22 1137.37 1023.01 1137.15 1023.63 1136.72C1024.27 1136.27 1024.72 1135.68 1024.97 1134.94H1027.33C1026.97 1136.21 1026.27 1137.24 1025.21 1138.04C1024.16 1138.82 1022.85 1139.22 1021.28 1139.22C1020.03 1139.22 1018.91 1138.94 1017.92 1138.38C1016.94 1137.82 1016.17 1137.02 1015.61 1136C1015.05 1134.96 1014.77 1133.76 1014.77 1132.4C1014.77 1131.04 1015.05 1129.85 1015.59 1128.82C1016.13 1127.8 1016.89 1127.02 1017.87 1126.47C1018.86 1125.91 1020 1125.63 1021.28 1125.63C1022.53 1125.63 1023.63 1125.9 1024.59 1126.45C1025.55 1126.99 1026.29 1127.74 1026.8 1128.7C1027.33 1129.65 1027.59 1130.72 1027.59 1131.92ZM1025.33 1131.46C1025.33 1130.63 1025.15 1129.92 1024.78 1129.33C1024.41 1128.72 1023.91 1128.26 1023.27 1127.96C1022.65 1127.64 1021.95 1127.48 1021.18 1127.48C1020.08 1127.48 1019.13 1127.83 1018.35 1128.54C1017.58 1129.24 1017.14 1130.22 1017.03 1131.46H1025.33ZM1035.13 1139.22C1034.12 1139.22 1033.22 1139.05 1032.42 1138.71C1031.62 1138.36 1030.99 1137.88 1030.52 1137.27C1030.06 1136.65 1029.8 1135.94 1029.75 1135.14H1032.01C1032.07 1135.79 1032.38 1136.33 1032.92 1136.74C1033.48 1137.16 1034.21 1137.37 1035.11 1137.37C1035.94 1137.37 1036.59 1137.18 1037.07 1136.82C1037.55 1136.45 1037.79 1135.98 1037.79 1135.42C1037.79 1134.85 1037.54 1134.42 1037.03 1134.15C1036.51 1133.86 1035.72 1133.58 1034.65 1133.31C1033.67 1133.06 1032.87 1132.8 1032.25 1132.54C1031.64 1132.27 1031.11 1131.88 1030.67 1131.37C1030.23 1130.84 1030.02 1130.15 1030.02 1129.3C1030.02 1128.63 1030.22 1128.02 1030.62 1127.46C1031.02 1126.9 1031.59 1126.46 1032.32 1126.14C1033.06 1125.8 1033.9 1125.63 1034.84 1125.63C1036.3 1125.63 1037.47 1126 1038.37 1126.74C1039.27 1127.47 1039.75 1128.48 1039.81 1129.76H1037.63C1037.58 1129.07 1037.3 1128.52 1036.79 1128.1C1036.29 1127.69 1035.62 1127.48 1034.77 1127.48C1033.99 1127.48 1033.36 1127.65 1032.9 1127.98C1032.43 1128.32 1032.2 1128.76 1032.2 1129.3C1032.2 1129.74 1032.34 1130.1 1032.61 1130.38C1032.9 1130.66 1033.25 1130.88 1033.67 1131.06C1034.1 1131.22 1034.69 1131.4 1035.44 1131.61C1036.39 1131.86 1037.15 1132.12 1037.75 1132.38C1038.34 1132.62 1038.84 1132.98 1039.26 1133.48C1039.69 1133.98 1039.91 1134.62 1039.93 1135.42C1039.93 1136.14 1039.73 1136.79 1039.33 1137.37C1038.93 1137.94 1038.36 1138.4 1037.63 1138.74C1036.91 1139.06 1036.07 1139.22 1035.13 1139.22ZM1055.01 1131.92C1055.01 1132.34 1054.99 1132.78 1054.94 1133.24H1044.43C1044.51 1134.54 1044.95 1135.55 1045.75 1136.29C1046.56 1137.01 1047.55 1137.37 1048.7 1137.37C1049.64 1137.37 1050.43 1137.15 1051.05 1136.72C1051.69 1136.27 1052.14 1135.68 1052.4 1134.94H1054.75C1054.4 1136.21 1053.69 1137.24 1052.64 1138.04C1051.58 1138.82 1050.27 1139.22 1048.7 1139.22C1047.45 1139.22 1046.33 1138.94 1045.34 1138.38C1044.36 1137.82 1043.6 1137.02 1043.04 1136C1042.48 1134.96 1042.2 1133.76 1042.2 1132.4C1042.2 1131.04 1042.47 1129.85 1043.01 1128.82C1043.56 1127.8 1044.32 1127.02 1045.29 1126.47C1046.28 1125.91 1047.42 1125.63 1048.7 1125.63C1049.95 1125.63 1051.05 1125.9 1052.01 1126.45C1052.97 1126.99 1053.71 1127.74 1054.22 1128.7C1054.75 1129.65 1055.01 1130.72 1055.01 1131.92ZM1052.76 1131.46C1052.76 1130.63 1052.57 1129.92 1052.2 1129.33C1051.84 1128.72 1051.33 1128.26 1050.69 1127.96C1050.07 1127.64 1049.37 1127.48 1048.6 1127.48C1047.5 1127.48 1046.56 1127.83 1045.77 1128.54C1045 1129.24 1044.56 1130.22 1044.45 1131.46H1052.76ZM1060.56 1127.65V1135.4C1060.56 1136.04 1060.69 1136.5 1060.97 1136.77C1061.24 1137.02 1061.71 1137.15 1062.38 1137.15H1063.99V1139H1062.02C1060.81 1139 1059.89 1138.72 1059.29 1138.16C1058.68 1137.6 1058.37 1136.68 1058.37 1135.4V1127.65H1056.67V1125.85H1058.37V1122.54H1060.56V1125.85H1063.99V1127.65H1060.56ZM1069.3 1127.65V1135.4C1069.3 1136.04 1069.44 1136.5 1069.71 1136.77C1069.98 1137.02 1070.45 1137.15 1071.13 1137.15H1072.73V1139H1070.77C1069.55 1139 1068.64 1138.72 1068.03 1138.16C1067.42 1137.6 1067.12 1136.68 1067.12 1135.4V1127.65H1065.41V1125.85H1067.12V1122.54H1069.3V1125.85H1072.73V1127.65H1069.3ZM1076.51 1123.71C1076.09 1123.71 1075.74 1123.57 1075.45 1123.28C1075.16 1122.99 1075.02 1122.64 1075.02 1122.22C1075.02 1121.81 1075.16 1121.46 1075.45 1121.17C1075.74 1120.88 1076.09 1120.74 1076.51 1120.74C1076.91 1120.74 1077.24 1120.88 1077.52 1121.17C1077.8 1121.46 1077.95 1121.81 1077.95 1122.22C1077.95 1122.64 1077.8 1122.99 1077.52 1123.28C1077.24 1123.57 1076.91 1123.71 1076.51 1123.71ZM1077.56 1125.85V1139H1075.38V1125.85H1077.56ZM1087.69 1125.61C1089.29 1125.61 1090.59 1126.1 1091.58 1127.07C1092.57 1128.03 1093.07 1129.42 1093.07 1131.25V1139H1090.91V1131.56C1090.91 1130.25 1090.58 1129.25 1089.93 1128.56C1089.27 1127.86 1088.37 1127.5 1087.24 1127.5C1086.09 1127.5 1085.17 1127.86 1084.48 1128.58C1083.81 1129.3 1083.47 1130.35 1083.47 1131.73V1139H1081.29V1125.85H1083.47V1127.72C1083.9 1127.05 1084.49 1126.53 1085.22 1126.16C1085.97 1125.79 1086.8 1125.61 1087.69 1125.61ZM1102.06 1125.63C1103.2 1125.63 1104.19 1125.88 1105.04 1126.38C1105.9 1126.87 1106.54 1127.5 1106.96 1128.25V1125.85H1109.17V1139.29C1109.17 1140.49 1108.91 1141.55 1108.4 1142.48C1107.89 1143.42 1107.15 1144.16 1106.19 1144.69C1105.25 1145.22 1104.14 1145.48 1102.88 1145.48C1101.15 1145.48 1099.71 1145.07 1098.56 1144.26C1097.41 1143.44 1096.73 1142.33 1096.52 1140.92H1098.68C1098.92 1141.72 1099.41 1142.36 1100.17 1142.84C1100.92 1143.34 1101.82 1143.58 1102.88 1143.58C1104.08 1143.58 1105.05 1143.21 1105.81 1142.46C1106.57 1141.7 1106.96 1140.65 1106.96 1139.29V1136.53C1106.53 1137.3 1105.89 1137.94 1105.04 1138.45C1104.19 1138.96 1103.2 1139.22 1102.06 1139.22C1100.89 1139.22 1099.83 1138.93 1098.87 1138.35C1097.93 1137.78 1097.18 1136.97 1096.64 1135.93C1096.09 1134.89 1095.82 1133.7 1095.82 1132.38C1095.82 1131.03 1096.09 1129.86 1096.64 1128.85C1097.18 1127.82 1097.93 1127.03 1098.87 1126.47C1099.83 1125.91 1100.89 1125.63 1102.06 1125.63ZM1106.96 1132.4C1106.96 1131.41 1106.76 1130.54 1106.36 1129.81C1105.96 1129.07 1105.41 1128.51 1104.73 1128.13C1104.05 1127.73 1103.31 1127.53 1102.49 1127.53C1101.68 1127.53 1100.93 1127.72 1100.26 1128.1C1099.59 1128.49 1099.05 1129.05 1098.65 1129.78C1098.25 1130.52 1098.05 1131.38 1098.05 1132.38C1098.05 1133.38 1098.25 1134.26 1098.65 1135.02C1099.05 1135.75 1099.59 1136.32 1100.26 1136.72C1100.93 1137.1 1101.68 1137.3 1102.49 1137.3C1103.31 1137.3 1104.05 1137.1 1104.73 1136.72C1105.41 1136.32 1105.96 1135.75 1106.36 1135.02C1106.76 1134.26 1106.96 1133.39 1106.96 1132.4ZM749.976 1159.71C749.56 1159.71 749.208 1159.57 748.92 1159.28C748.632 1158.99 748.488 1158.64 748.488 1158.22C748.488 1157.81 748.632 1157.46 748.92 1157.17C749.208 1156.88 749.56 1156.74 749.976 1156.74C750.376 1156.74 750.712 1156.88 750.984 1157.17C751.272 1157.46 751.416 1157.81 751.416 1158.22C751.416 1158.64 751.272 1158.99 750.984 1159.28C750.712 1159.57 750.376 1159.71 749.976 1159.71ZM751.032 1161.85V1175H748.848V1161.85H751.032ZM761.162 1161.61C762.762 1161.61 764.058 1162.1 765.05 1163.07C766.042 1164.03 766.538 1165.42 766.538 1167.25V1175H764.378V1167.56C764.378 1166.25 764.05 1165.25 763.394 1164.56C762.738 1163.86 761.842 1163.5 760.706 1163.5C759.554 1163.5 758.634 1163.86 757.946 1164.58C757.274 1165.3 756.938 1166.35 756.938 1167.73V1175H754.754V1161.85H756.938V1163.72C757.37 1163.05 757.954 1162.53 758.69 1162.16C759.442 1161.79 760.266 1161.61 761.162 1161.61ZM769.29 1168.38C769.29 1167.03 769.562 1165.86 770.106 1164.85C770.65 1163.82 771.394 1163.03 772.338 1162.47C773.298 1161.91 774.37 1161.63 775.554 1161.63C776.578 1161.63 777.53 1161.87 778.41 1162.35C779.29 1162.82 779.962 1163.43 780.426 1164.2V1157.24H782.634V1175H780.426V1172.53C779.994 1173.31 779.354 1173.96 778.506 1174.47C777.658 1174.97 776.666 1175.22 775.53 1175.22C774.362 1175.22 773.298 1174.93 772.338 1174.35C771.394 1173.78 770.65 1172.97 770.106 1171.93C769.562 1170.89 769.29 1169.7 769.29 1168.38ZM780.426 1168.4C780.426 1167.41 780.226 1166.54 779.826 1165.81C779.426 1165.07 778.882 1164.51 778.194 1164.13C777.522 1163.73 776.778 1163.53 775.962 1163.53C775.146 1163.53 774.402 1163.72 773.73 1164.1C773.058 1164.49 772.522 1165.05 772.122 1165.78C771.722 1166.52 771.522 1167.38 771.522 1168.38C771.522 1169.38 771.722 1170.26 772.122 1171.02C772.522 1171.75 773.058 1172.32 773.73 1172.72C774.402 1173.1 775.146 1173.3 775.962 1173.3C776.778 1173.3 777.522 1173.1 778.194 1172.72C778.882 1172.32 779.426 1171.75 779.826 1171.02C780.226 1170.26 780.426 1169.39 780.426 1168.4ZM797.989 1161.85V1175H795.805V1173.06C795.389 1173.73 794.805 1174.26 794.053 1174.64C793.317 1175.01 792.501 1175.19 791.605 1175.19C790.581 1175.19 789.661 1174.98 788.845 1174.57C788.029 1174.14 787.381 1173.5 786.901 1172.65C786.437 1171.8 786.205 1170.77 786.205 1169.55V1161.85H788.365V1169.26C788.365 1170.56 788.693 1171.56 789.349 1172.26C790.005 1172.95 790.901 1173.3 792.037 1173.3C793.205 1173.3 794.125 1172.94 794.797 1172.22C795.469 1171.5 795.805 1170.45 795.805 1169.07V1161.85H797.989ZM806.332 1175.22C805.324 1175.22 804.42 1175.05 803.62 1174.71C802.82 1174.36 802.188 1173.88 801.724 1173.27C801.26 1172.65 801.004 1171.94 800.956 1171.14H803.212C803.276 1171.79 803.58 1172.33 804.124 1172.74C804.684 1173.16 805.412 1173.37 806.308 1173.37C807.14 1173.37 807.796 1173.18 808.276 1172.82C808.756 1172.45 808.996 1171.98 808.996 1171.42C808.996 1170.85 808.74 1170.42 808.228 1170.15C807.716 1169.86 806.924 1169.58 805.852 1169.31C804.876 1169.06 804.076 1168.8 803.452 1168.54C802.844 1168.27 802.316 1167.88 801.868 1167.37C801.436 1166.84 801.22 1166.15 801.22 1165.3C801.22 1164.63 801.42 1164.02 801.82 1163.46C802.22 1162.9 802.788 1162.46 803.524 1162.14C804.26 1161.8 805.1 1161.63 806.044 1161.63C807.5 1161.63 808.676 1162 809.572 1162.74C810.468 1163.47 810.948 1164.48 811.012 1165.76H808.828C808.78 1165.07 808.5 1164.52 807.988 1164.1C807.492 1163.69 806.82 1163.48 805.972 1163.48C805.188 1163.48 804.564 1163.65 804.1 1163.98C803.636 1164.32 803.404 1164.76 803.404 1165.3C803.404 1165.74 803.54 1166.1 803.812 1166.38C804.1 1166.66 804.452 1166.88 804.868 1167.06C805.3 1167.22 805.892 1167.4 806.644 1167.61C807.588 1167.86 808.356 1168.12 808.948 1168.38C809.54 1168.62 810.044 1168.98 810.46 1169.48C810.892 1169.98 811.116 1170.62 811.132 1171.42C811.132 1172.14 810.932 1172.79 810.532 1173.37C810.132 1173.94 809.564 1174.4 808.828 1174.74C808.108 1175.06 807.276 1175.22 806.332 1175.22ZM816.879 1163.65V1171.4C816.879 1172.04 817.015 1172.5 817.287 1172.77C817.559 1173.02 818.031 1173.15 818.703 1173.15H820.311V1175H818.343C817.127 1175 816.215 1174.72 815.607 1174.16C814.999 1173.6 814.695 1172.68 814.695 1171.4V1163.65H812.991V1161.85H814.695V1158.54H816.879V1161.85H820.311V1163.65H816.879ZM825.141 1163.98C825.525 1163.23 826.069 1162.65 826.773 1162.23C827.493 1161.82 828.365 1161.61 829.389 1161.61V1163.86H828.813C826.365 1163.86 825.141 1165.19 825.141 1167.85V1175H822.957V1161.85H825.141V1163.98ZM843.239 1161.85L835.319 1181.19H833.062L835.655 1174.86L830.351 1161.85H832.775L836.903 1172.5L840.983 1161.85H843.239ZM846.13 1175.14C845.714 1175.14 845.362 1175 845.074 1174.71C844.786 1174.42 844.642 1174.07 844.642 1173.66C844.642 1173.24 844.786 1172.89 845.074 1172.6C845.362 1172.31 845.714 1172.17 846.13 1172.17C846.53 1172.17 846.866 1172.31 847.138 1172.6C847.426 1172.89 847.57 1173.24 847.57 1173.66C847.57 1174.07 847.426 1174.42 847.138 1174.71C846.866 1175 846.53 1175.14 846.13 1175.14Z" fill="white"/>
<g filter="url(#filter2_dd)">
<circle cx="1349" cy="1046" r="39" fill="#297AC5"/>
<path d="M1364.39 1030.25L1371.9 1037.76C1372.21 1038.07 1372.21 1038.59 1371.9 1038.91L1353.71 1057.09L1345.98 1057.95C1344.95 1058.07 1344.08 1057.19 1344.19 1056.16L1345.05 1048.43L1363.24 1030.25C1363.55 1029.93 1364.07 1029.93 1364.39 1030.25ZM1377.88 1028.34L1373.81 1024.27C1372.55 1023.01 1370.49 1023.01 1369.22 1024.27L1366.27 1027.22C1365.95 1027.54 1365.95 1028.06 1366.27 1028.37L1373.78 1035.88C1374.1 1036.2 1374.61 1036.2 1374.93 1035.88L1377.88 1032.94C1379.14 1031.66 1379.14 1029.6 1377.88 1028.34ZM1362.84 1052.15V1060.62H1336.19V1033.98H1355.33C1355.59 1033.98 1355.84 1033.87 1356.03 1033.68L1359.37 1030.35C1360 1029.72 1359.55 1028.65 1358.66 1028.65H1334.86C1332.65 1028.65 1330.86 1030.44 1330.86 1032.64V1061.96C1330.86 1064.16 1332.65 1065.95 1334.86 1065.95H1364.17C1366.38 1065.95 1368.17 1064.16 1368.17 1061.96V1048.82C1368.17 1047.92 1367.09 1047.48 1366.46 1048.11L1363.13 1051.44C1362.95 1051.63 1362.84 1051.88 1362.84 1052.15Z" fill="white"/>
</g>
<g filter="url(#filter3_dd)">
<circle cx="1349" cy="1154" r="39" fill="#28BA48"/>
<path d="M1343.27 1168.41L1329.62 1155.34C1328.79 1154.55 1328.79 1153.28 1329.62 1152.49L1332.58 1149.65C1333.4 1148.86 1334.73 1148.86 1335.55 1149.65L1344.75 1158.45L1364.45 1139.59C1365.27 1138.8 1366.6 1138.8 1367.42 1139.59L1370.38 1142.43C1371.21 1143.22 1371.21 1144.49 1370.38 1145.28L1346.23 1168.41C1345.41 1169.2 1344.09 1169.2 1343.27 1168.41Z" fill="white"/>
</g>
<g filter="url(#filter4_dd)">
<path d="M754.8 150.93V159.354H744.648V189H734.064V159.354H724.02V150.93H754.8ZM782.799 182.79H769.299L767.247 189H756.123L770.001 150.93H782.205L796.029 189H784.851L782.799 182.79ZM780.153 174.69L776.049 162.378L771.999 174.69H780.153ZM813.843 189.378C809.415 189.378 805.779 188.334 802.935 186.246C800.091 184.122 798.561 181.098 798.345 177.174H809.631C809.739 178.506 810.135 179.478 810.819 180.09C811.503 180.702 812.385 181.008 813.465 181.008C814.437 181.008 815.229 180.774 815.841 180.306C816.489 179.802 816.813 179.118 816.813 178.254C816.813 177.138 816.291 176.274 815.247 175.662C814.203 175.05 812.511 174.366 810.171 173.61C807.687 172.782 805.671 171.99 804.123 171.234C802.611 170.442 801.279 169.308 800.127 167.832C799.011 166.32 798.453 164.358 798.453 161.946C798.453 159.498 799.065 157.41 800.289 155.682C801.513 153.918 803.205 152.586 805.365 151.686C807.525 150.786 809.973 150.336 812.709 150.336C817.137 150.336 820.665 151.38 823.293 153.468C825.957 155.52 827.379 158.418 827.559 162.162H816.057C816.021 161.01 815.661 160.146 814.977 159.57C814.329 158.994 813.483 158.706 812.439 158.706C811.647 158.706 810.999 158.94 810.495 159.408C809.991 159.876 809.739 160.542 809.739 161.406C809.739 162.126 810.009 162.756 810.549 163.296C811.125 163.8 811.827 164.25 812.655 164.646C813.483 165.006 814.707 165.474 816.327 166.05C818.739 166.878 820.719 167.706 822.267 168.534C823.851 169.326 825.201 170.46 826.317 171.936C827.469 173.376 828.045 175.212 828.045 177.444C828.045 179.712 827.469 181.746 826.317 183.546C825.201 185.346 823.563 186.768 821.403 187.812C819.279 188.856 816.759 189.378 813.843 189.378ZM855.483 189L843.549 172.314V189H832.965V150.93H843.549V167.346L855.375 150.93H867.579L853.593 169.398L868.281 189H855.483ZM926.925 150.93V189H916.341V167.994L909.159 189H900.303L893.067 167.832V189H882.483V150.93H895.281L904.839 175.662L914.181 150.93H926.925ZM957.034 182.79H943.534L941.482 189H930.358L944.236 150.93H956.44L970.264 189H959.086L957.034 182.79ZM954.388 174.69L950.284 162.378L946.234 174.69H954.388ZM1008.98 189H998.391L984.297 167.724V189H973.713V150.93H984.297L998.391 172.476V150.93H1008.98V189ZM1039.09 182.79H1025.59L1023.54 189H1012.41L1026.29 150.93H1038.49L1052.32 189H1041.14L1039.09 182.79ZM1036.44 174.69L1032.34 162.378L1028.29 174.69H1036.44ZM1080.07 163.458C1079.46 162.45 1078.61 161.676 1077.53 161.136C1076.49 160.596 1075.24 160.326 1073.8 160.326C1071.14 160.326 1069.03 161.19 1067.49 162.918C1065.97 164.646 1065.22 166.968 1065.22 169.884C1065.22 173.16 1066.03 175.662 1067.65 177.39C1069.3 179.082 1071.7 179.928 1074.83 179.928C1078.54 179.928 1081.18 178.254 1082.77 174.906H1072.13V167.292H1091.89V177.552C1091.07 179.568 1089.84 181.458 1088.22 183.222C1086.64 184.986 1084.62 186.444 1082.17 187.596C1079.73 188.712 1076.94 189.27 1073.8 189.27C1069.99 189.27 1066.6 188.46 1063.65 186.84C1060.74 185.184 1058.47 182.898 1056.85 179.982C1055.26 177.03 1054.47 173.664 1054.47 169.884C1054.47 166.14 1055.26 162.81 1056.85 159.894C1058.47 156.942 1060.74 154.656 1063.65 153.036C1066.57 151.38 1069.93 150.552 1073.75 150.552C1078.54 150.552 1082.5 151.704 1085.63 154.008C1088.76 156.312 1090.71 159.462 1091.46 163.458H1080.07ZM1107.22 159.408V165.618H1119.37V173.664H1107.22V180.522H1120.99V189H1096.64V150.93H1120.99V159.408H1107.22ZM1145.5 189L1137.94 174.96H1136.81V189H1126.22V150.93H1142.91C1145.97 150.93 1148.56 151.47 1150.68 152.55C1152.81 153.594 1154.41 155.052 1155.49 156.924C1156.57 158.76 1157.11 160.83 1157.11 163.134C1157.11 165.726 1156.39 168.012 1154.95 169.992C1153.55 171.936 1151.48 173.322 1148.74 174.15L1157.33 189H1145.5ZM1136.81 167.724H1142.04C1143.48 167.724 1144.56 167.382 1145.28 166.698C1146 166.014 1146.36 165.024 1146.36 163.728C1146.36 162.504 1145.99 161.55 1145.23 160.866C1144.51 160.146 1143.45 159.786 1142.04 159.786H1136.81V167.724Z" fill="white"/>
</g>
<g clip-path="url(#clip0)">
<path d="M47.8067 2634.92L41.866 2626.93C40.1058 2627.29 38.3896 2627.46 36.7174 2627.46C32.3608 2627.46 28.3563 2626.45 24.7039 2624.43C21.0954 2622.4 18.213 2619.59 16.0568 2615.98C13.9445 2612.32 12.8884 2608.23 12.8884 2603.7C12.8884 2599.17 13.9445 2595.1 16.0568 2591.49C18.213 2587.88 21.0954 2585.06 24.7039 2583.04C28.3563 2581.01 32.3608 2580 36.7174 2580C41.0739 2580 45.0564 2581.01 48.6648 2583.04C52.3173 2585.06 55.1777 2587.88 57.2459 2591.49C59.3582 2595.1 60.4143 2599.17 60.4143 2603.7C60.4143 2607.66 59.6002 2611.29 57.972 2614.59C56.3878 2617.85 54.1655 2620.55 51.3052 2622.71L61.4704 2634.92H47.8067ZM24.4398 2603.7C24.4398 2607.79 25.54 2611.07 27.7402 2613.53C29.9845 2615.95 32.9769 2617.16 36.7174 2617.16C40.4138 2617.16 43.3622 2615.93 45.5625 2613.47C47.8067 2611 48.9289 2607.75 48.9289 2603.7C48.9289 2599.61 47.8067 2596.35 45.5625 2593.93C43.3622 2591.47 40.4138 2590.23 36.7174 2590.23C32.9769 2590.23 29.9845 2591.44 27.7402 2593.86C25.54 2596.28 24.4398 2599.56 24.4398 2603.7ZM81.2126 2580.66V2608.39C81.2126 2611.16 81.8947 2613.29 83.2588 2614.79C84.623 2616.28 86.6252 2617.03 89.2656 2617.03C91.9059 2617.03 93.9302 2616.28 95.3383 2614.79C96.7465 2613.29 97.4506 2611.16 97.4506 2608.39V2580.66H108.738V2608.32C108.738 2612.46 107.858 2615.95 106.098 2618.81C104.337 2621.68 101.961 2623.83 98.9688 2625.28C96.0204 2626.74 92.72 2627.46 89.0675 2627.46C85.4151 2627.46 82.1367 2626.76 79.2323 2625.35C76.372 2623.9 74.1057 2621.74 72.4335 2618.88C70.7613 2615.98 69.9252 2612.46 69.9252 2608.32V2580.66H81.2126ZM131.252 2580.66V2627H119.965V2580.66H131.252ZM184.185 2627H172.898L154.02 2598.42V2627H142.732V2580.66H154.02L172.898 2609.38V2580.66H184.185V2627ZM207.681 2617.76H227.616V2627H194.876V2618.42L214.678 2589.9H194.876V2580.66H227.616V2589.24L207.681 2617.76ZM260.204 2627.46C255.848 2627.46 251.843 2626.45 248.191 2624.43C244.582 2622.4 241.7 2619.59 239.544 2615.98C237.431 2612.32 236.375 2608.23 236.375 2603.7C236.375 2599.17 237.431 2595.1 239.544 2591.49C241.7 2587.88 244.582 2585.06 248.191 2583.04C251.843 2581.01 255.848 2580 260.204 2580C264.561 2580 268.543 2581.01 272.152 2583.04C275.804 2585.06 278.665 2587.88 280.733 2591.49C282.845 2595.1 283.901 2599.17 283.901 2603.7C283.901 2608.23 282.845 2612.32 280.733 2615.98C278.62 2619.59 275.76 2622.4 272.152 2624.43C268.543 2626.45 264.561 2627.46 260.204 2627.46ZM260.204 2617.16C263.901 2617.16 266.849 2615.93 269.049 2613.47C271.294 2611 272.416 2607.75 272.416 2603.7C272.416 2599.61 271.294 2596.35 269.049 2593.93C266.849 2591.47 263.901 2590.23 260.204 2590.23C256.464 2590.23 253.471 2591.44 251.227 2593.86C249.027 2596.28 247.927 2599.56 247.927 2603.7C247.927 2607.79 249.027 2611.07 251.227 2613.53C253.471 2615.95 256.464 2617.16 260.204 2617.16ZM344.104 2580.66V2589.71H331.826V2627H320.539V2589.71H308.261V2580.66H344.104ZM364.356 2589.71V2599.08H379.472V2607.79H364.356V2617.96H381.453V2627H353.069V2580.66H381.453V2589.71H364.356ZM390.167 2603.77C390.167 2599.19 391.157 2595.12 393.137 2591.55C395.117 2587.95 397.868 2585.15 401.388 2583.17C404.952 2581.15 408.979 2580.13 413.468 2580.13C418.968 2580.13 423.677 2581.59 427.593 2584.49C431.51 2587.4 434.128 2591.36 435.448 2596.37H423.039C422.115 2594.44 420.794 2592.96 419.078 2591.95C417.406 2590.94 415.492 2590.43 413.336 2590.43C409.859 2590.43 407.043 2591.64 404.886 2594.06C402.73 2596.48 401.652 2599.72 401.652 2603.77C401.652 2607.81 402.73 2611.05 404.886 2613.47C407.043 2615.89 409.859 2617.1 413.336 2617.1C415.492 2617.1 417.406 2616.59 419.078 2615.58C420.794 2614.57 422.115 2613.09 423.039 2611.16H435.448C434.128 2616.17 431.51 2620.14 427.593 2623.04C423.677 2625.9 418.968 2627.33 413.468 2627.33C408.979 2627.33 404.952 2626.34 401.388 2624.36C397.868 2622.34 395.117 2619.54 393.137 2615.98C391.157 2612.41 390.167 2608.34 390.167 2603.77ZM485.794 2580.66V2627H474.507V2607.92H456.948V2627H445.661V2580.66H456.948V2598.81H474.507V2580.66H485.794Z" fill="url(#paint0_linear)"/>
<path d="M47.8067 2634.92L46.0145 2636.25L46.6843 2637.15H47.8067V2634.92ZM41.866 2626.93L43.6582 2625.6L42.8144 2624.47L41.4279 2624.74L41.866 2626.93ZM24.7039 2624.43L23.611 2626.37L23.6211 2626.38L24.7039 2624.43ZM16.0568 2615.98L14.1232 2617.09L14.1312 2617.11L14.1394 2617.12L16.0568 2615.98ZM16.0568 2591.49L14.1394 2590.34L14.1342 2590.35L14.1291 2590.36L16.0568 2591.49ZM24.7039 2583.04L23.6211 2581.08L23.611 2581.09L24.7039 2583.04ZM48.6648 2583.04L47.572 2584.99L47.5821 2584.99L48.6648 2583.04ZM57.2459 2591.49L55.308 2592.6L55.3131 2592.61L55.3182 2592.62L57.2459 2591.49ZM57.972 2614.59L55.9688 2613.6L55.9634 2613.61L57.972 2614.59ZM51.3052 2622.71L49.9606 2620.93L48.0888 2622.34L49.5885 2624.14L51.3052 2622.71ZM61.4704 2634.92V2637.15H66.2361L63.1871 2633.49L61.4704 2634.92ZM27.7402 2613.53L26.0741 2615.02L26.0881 2615.04L26.1024 2615.05L27.7402 2613.53ZM45.5625 2613.47L43.911 2611.96L43.9036 2611.97L43.8963 2611.98L45.5625 2613.47ZM45.5625 2593.93L43.8963 2595.42L43.9103 2595.43L43.9246 2595.45L45.5625 2593.93ZM27.7402 2593.86L26.1024 2592.35L26.0949 2592.35L26.0875 2592.36L27.7402 2593.86ZM49.599 2633.59L43.6582 2625.6L40.0738 2628.27L46.0145 2636.25L49.599 2633.59ZM41.4279 2624.74C39.8015 2625.07 38.2322 2625.23 36.7174 2625.23V2629.7C38.547 2629.7 40.4101 2629.5 42.3041 2629.12L41.4279 2624.74ZM36.7174 2625.23C32.7226 2625.23 29.0932 2624.3 25.7866 2622.47L23.6211 2626.38C27.6195 2628.6 31.999 2629.7 36.7174 2629.7V2625.23ZM25.7967 2622.48C22.5341 2620.65 19.9337 2618.11 17.9742 2614.83L14.1394 2617.12C16.4924 2621.06 19.6567 2624.16 23.611 2626.37L25.7967 2622.48ZM17.9904 2614.86C16.0892 2611.57 15.122 2607.87 15.122 2603.7H10.6547C10.6547 2608.59 11.7998 2613.08 14.1232 2617.09L17.9904 2614.86ZM15.122 2603.7C15.122 2599.53 16.0893 2595.85 17.9845 2592.62L14.1291 2590.36C11.7998 2594.34 10.6547 2598.8 10.6547 2603.7H15.122ZM17.9742 2592.63C19.9337 2589.35 22.5341 2586.82 25.7967 2584.99L23.611 2581.09C19.6567 2583.31 16.4924 2586.4 14.1394 2590.34L17.9742 2592.63ZM25.7866 2584.99C29.0932 2583.16 32.7226 2582.24 36.7174 2582.24V2577.77C31.999 2577.77 27.6195 2578.87 23.6211 2581.08L25.7866 2584.99ZM36.7174 2582.24C40.7122 2582.24 44.3152 2583.16 47.572 2584.99L49.7577 2581.09C45.7976 2578.87 41.4356 2577.77 36.7174 2577.77V2582.24ZM47.5821 2584.99C50.8794 2586.82 53.4434 2589.35 55.308 2592.6L59.1838 2590.38C56.9119 2586.41 53.7552 2583.31 49.7476 2581.08L47.5821 2584.99ZM55.3182 2592.62C57.2134 2595.85 58.1807 2599.53 58.1807 2603.7H62.648C62.648 2598.8 61.5029 2594.34 59.1736 2590.36L55.3182 2592.62ZM58.1807 2603.7C58.1807 2607.34 57.4341 2610.63 55.9688 2613.6L59.9752 2615.58C61.7664 2611.95 62.648 2607.98 62.648 2603.7H58.1807ZM55.9634 2613.61C54.5319 2616.56 52.5358 2618.98 49.9606 2620.93L52.6498 2624.49C55.7953 2622.12 58.2437 2619.14 59.9806 2615.57L55.9634 2613.61ZM49.5885 2624.14L59.7537 2636.35L63.1871 2633.49L53.0219 2621.28L49.5885 2624.14ZM61.4704 2632.69H47.8067V2637.15H61.4704V2632.69ZM22.2062 2603.7C22.2062 2608.2 23.4266 2612.06 26.0741 2615.02L29.4064 2612.05C27.6533 2610.08 26.6735 2607.38 26.6735 2603.7H22.2062ZM26.1024 2615.05C28.8277 2617.99 32.4466 2619.4 36.7174 2619.4V2614.93C33.5072 2614.93 31.1414 2613.92 29.3781 2612.02L26.1024 2615.05ZM36.7174 2619.4C40.9658 2619.4 44.5515 2617.95 47.2286 2614.96L43.8963 2611.98C42.1729 2613.91 39.8618 2614.93 36.7174 2614.93V2619.4ZM47.2139 2614.97C49.9095 2612.01 51.1625 2608.18 51.1625 2603.7H46.6952C46.6952 2607.32 45.704 2610 43.911 2611.96L47.2139 2614.97ZM51.1625 2603.7C51.1625 2599.18 49.914 2595.34 47.2003 2592.41L43.9246 2595.45C45.6995 2597.36 46.6952 2600.03 46.6952 2603.7H51.1625ZM47.2286 2592.44C44.5515 2589.44 40.9658 2588 36.7174 2588V2592.47C39.8618 2592.47 42.1729 2593.49 43.8963 2595.42L47.2286 2592.44ZM36.7174 2588C32.4466 2588 28.8277 2589.41 26.1024 2592.35L29.3781 2595.38C31.1414 2593.48 33.5072 2592.47 36.7174 2592.47V2588ZM26.0875 2592.36C23.4221 2595.29 22.2062 2599.16 22.2062 2603.7H26.6735C26.6735 2599.97 27.6578 2597.28 29.393 2595.37L26.0875 2592.36ZM81.2126 2580.66H83.4462V2578.43H81.2126V2580.66ZM83.2588 2614.79L81.6083 2616.29L81.6083 2616.29L83.2588 2614.79ZM95.3383 2614.79L96.9649 2616.32L96.9649 2616.32L95.3383 2614.79ZM97.4506 2580.66V2578.43H95.2169V2580.66H97.4506ZM108.738 2580.66H110.972V2578.43H108.738V2580.66ZM106.098 2618.81L108 2619.99L108 2619.99L106.098 2618.81ZM98.9688 2625.28L97.9936 2623.27L97.9818 2623.28L98.9688 2625.28ZM79.2323 2625.35L78.2212 2627.34L78.2394 2627.35L78.2578 2627.36L79.2323 2625.35ZM72.4335 2618.88L70.4977 2620L70.5014 2620L70.5052 2620.01L72.4335 2618.88ZM69.9252 2580.66V2578.43H67.6915V2580.66H69.9252ZM78.9789 2580.66V2608.39H83.4462V2580.66H78.9789ZM78.9789 2608.39C78.9789 2611.51 79.7493 2614.25 81.6083 2616.29L84.9094 2613.28C84.04 2612.33 83.4462 2610.81 83.4462 2608.39H78.9789ZM81.6083 2616.29C83.5148 2618.38 86.1989 2619.27 89.2656 2619.27V2614.8C87.0516 2614.8 85.7312 2614.18 84.9094 2613.28L81.6083 2616.29ZM89.2656 2619.27C92.3363 2619.27 95.0224 2618.38 96.9649 2616.32L93.7118 2613.26C92.8379 2614.19 91.4755 2614.8 89.2656 2614.8V2619.27ZM96.9649 2616.32C98.8827 2614.28 99.6842 2611.52 99.6842 2608.39H95.2169C95.2169 2610.79 94.6103 2612.3 93.7118 2613.26L96.9649 2616.32ZM99.6842 2608.39V2580.66H95.2169V2608.39H99.6842ZM97.4506 2582.9H108.738V2578.43H97.4506V2582.9ZM106.504 2580.66V2608.32H110.972V2580.66H106.504ZM106.504 2608.32C106.504 2612.14 105.694 2615.21 104.195 2617.64L108 2619.99C110.022 2616.7 110.972 2612.77 110.972 2608.32H106.504ZM104.195 2617.64C102.656 2620.15 100.599 2622.01 97.9936 2623.27L99.944 2627.29C103.323 2625.65 106.019 2623.2 108 2619.99L104.195 2617.64ZM97.9818 2623.28C95.3733 2624.56 92.4163 2625.23 89.0675 2625.23V2629.7C93.0237 2629.7 96.6675 2628.91 99.9557 2627.29L97.9818 2623.28ZM89.0675 2625.23C85.708 2625.23 82.7697 2624.58 80.2068 2623.34L78.2578 2627.36C81.5037 2628.93 85.1222 2629.7 89.0675 2629.7V2625.23ZM80.2435 2623.36C77.7785 2622.11 75.8251 2620.26 74.3618 2617.75L70.5052 2620.01C72.3863 2623.23 74.9654 2625.69 78.2212 2627.34L80.2435 2623.36ZM74.3692 2617.77C72.933 2615.27 72.1588 2612.16 72.1588 2608.32H67.6915C67.6915 2612.76 68.5895 2616.68 70.4977 2620L74.3692 2617.77ZM72.1588 2608.32V2580.66H67.6915V2608.32H72.1588ZM69.9252 2582.9H81.2126V2578.43H69.9252V2582.9ZM131.252 2580.66H133.486V2578.43H131.252V2580.66ZM131.252 2627V2629.23H133.486V2627H131.252ZM119.965 2627H117.731V2629.23H119.965V2627ZM119.965 2580.66V2578.43H117.731V2580.66H119.965ZM129.018 2580.66V2627H133.486V2580.66H129.018ZM131.252 2624.77H119.965V2629.23H131.252V2624.77ZM122.198 2627V2580.66H117.731V2627H122.198ZM119.965 2582.9H131.252V2578.43H119.965V2582.9ZM184.185 2627V2629.23H186.419V2627H184.185ZM172.898 2627L171.034 2628.23L171.696 2629.23H172.898V2627ZM154.02 2598.42L155.883 2597.19L151.786 2590.98V2598.42H154.02ZM154.02 2627V2629.23H156.253V2627H154.02ZM142.732 2627H140.499V2629.23H142.732V2627ZM142.732 2580.66V2578.43H140.499V2580.66H142.732ZM154.02 2580.66L155.886 2579.44L155.224 2578.43H154.02V2580.66ZM172.898 2609.38L171.032 2610.6L175.132 2616.84V2609.38H172.898ZM172.898 2580.66V2578.43H170.664V2580.66H172.898ZM184.185 2580.66H186.419V2578.43H184.185V2580.66ZM184.185 2624.77H172.898V2629.23H184.185V2624.77ZM174.762 2625.77L155.883 2597.19L152.156 2599.65L171.034 2628.23L174.762 2625.77ZM151.786 2598.42V2627H156.253V2598.42H151.786ZM154.02 2624.77H142.732V2629.23H154.02V2624.77ZM144.966 2627V2580.66H140.499V2627H144.966ZM142.732 2582.9H154.02V2578.43H142.732V2582.9ZM152.153 2581.89L171.032 2610.6L174.764 2608.15L155.886 2579.44L152.153 2581.89ZM175.132 2609.38V2580.66H170.664V2609.38H175.132ZM172.898 2582.9H184.185V2578.43H172.898V2582.9ZM181.952 2580.66V2627H186.419V2580.66H181.952ZM207.681 2617.76L205.851 2616.48L203.394 2619.99H207.681V2617.76ZM227.616 2617.76H229.849V2615.53H227.616V2617.76ZM227.616 2627V2629.23H229.849V2627H227.616ZM194.876 2627H192.642V2629.23H194.876V2627ZM194.876 2618.42L193.041 2617.14L192.642 2617.72V2618.42H194.876ZM214.678 2589.9L216.513 2591.18L218.949 2587.67H214.678V2589.9ZM194.876 2589.9H192.642V2592.14H194.876V2589.9ZM194.876 2580.66V2578.43H192.642V2580.66H194.876ZM227.616 2580.66H229.849V2578.43H227.616V2580.66ZM227.616 2589.24L229.446 2590.52L229.849 2589.95V2589.24H227.616ZM207.681 2619.99H227.616V2615.53H207.681V2619.99ZM225.382 2617.76V2627H229.849V2617.76H225.382ZM227.616 2624.77H194.876V2629.23H227.616V2624.77ZM197.109 2627V2618.42H192.642V2627H197.109ZM196.71 2619.69L216.513 2591.18L212.843 2588.63L193.041 2617.14L196.71 2619.69ZM214.678 2587.67H194.876V2592.14H214.678V2587.67ZM197.109 2589.9V2580.66H192.642V2589.9H197.109ZM194.876 2582.9H227.616V2578.43H194.876V2582.9ZM225.382 2580.66V2589.24H229.849V2580.66H225.382ZM225.785 2587.96L205.851 2616.48L209.512 2619.04L229.446 2590.52L225.785 2587.96ZM248.191 2624.43L247.098 2626.37L247.108 2626.38L248.191 2624.43ZM239.544 2615.98L237.61 2617.09L237.618 2617.11L237.626 2617.12L239.544 2615.98ZM239.544 2591.49L237.626 2590.34L237.621 2590.35L237.616 2590.36L239.544 2591.49ZM248.191 2583.04L247.108 2581.08L247.098 2581.09L248.191 2583.04ZM272.152 2583.04L271.059 2584.99L271.069 2584.99L272.152 2583.04ZM280.733 2591.49L278.795 2592.6L278.8 2592.61L278.805 2592.62L280.733 2591.49ZM280.733 2615.98L282.66 2617.11L282.666 2617.09L280.733 2615.98ZM272.152 2624.43L273.245 2626.37L273.245 2626.37L272.152 2624.43ZM269.049 2613.47L267.398 2611.96L267.39 2611.97L267.383 2611.98L269.049 2613.47ZM269.049 2593.93L267.383 2595.42L267.397 2595.43L267.411 2595.45L269.049 2593.93ZM251.227 2593.86L249.589 2592.35L249.582 2592.35L249.574 2592.36L251.227 2593.86ZM251.227 2613.53L249.561 2615.02L249.575 2615.04L249.589 2615.05L251.227 2613.53ZM260.204 2625.23C256.209 2625.23 252.58 2624.3 249.273 2622.47L247.108 2626.38C251.106 2628.6 255.486 2629.7 260.204 2629.7V2625.23ZM249.284 2622.48C246.021 2620.65 243.421 2618.11 241.461 2614.83L237.626 2617.12C239.979 2621.06 243.144 2624.16 247.098 2626.37L249.284 2622.48ZM241.477 2614.86C239.576 2611.57 238.609 2607.87 238.609 2603.7H234.142C234.142 2608.59 235.287 2613.08 237.61 2617.09L241.477 2614.86ZM238.609 2603.7C238.609 2599.53 239.576 2595.85 241.471 2592.62L237.616 2590.36C235.287 2594.34 234.142 2598.8 234.142 2603.7H238.609ZM241.461 2592.63C243.421 2589.35 246.021 2586.82 249.284 2584.99L247.098 2581.09C243.144 2583.31 239.979 2586.4 237.626 2590.34L241.461 2592.63ZM249.273 2584.99C252.58 2583.16 256.209 2582.24 260.204 2582.24V2577.77C255.486 2577.77 251.106 2578.87 247.108 2581.08L249.273 2584.99ZM260.204 2582.24C264.199 2582.24 267.802 2583.16 271.059 2584.99L273.245 2581.09C269.284 2578.87 264.922 2577.77 260.204 2577.77V2582.24ZM271.069 2584.99C274.366 2586.82 276.93 2589.35 278.795 2592.6L282.671 2590.38C280.399 2586.41 277.242 2583.31 273.234 2581.08L271.069 2584.99ZM278.805 2592.62C280.7 2595.85 281.667 2599.53 281.667 2603.7H286.135C286.135 2598.8 284.99 2594.34 282.66 2590.36L278.805 2592.62ZM281.667 2603.7C281.667 2607.87 280.7 2611.57 278.799 2614.86L282.666 2617.09C284.99 2613.08 286.135 2608.59 286.135 2603.7H281.667ZM278.805 2614.85C276.891 2618.12 274.317 2620.65 271.059 2622.48L273.245 2626.37C277.203 2624.15 280.35 2621.05 282.66 2617.11L278.805 2614.85ZM271.059 2622.48C267.802 2624.3 264.199 2625.23 260.204 2625.23V2629.7C264.922 2629.7 269.284 2628.6 273.245 2626.37L271.059 2622.48ZM260.204 2619.4C264.453 2619.4 268.038 2617.95 270.715 2614.96L267.383 2611.98C265.66 2613.91 263.349 2614.93 260.204 2614.93V2619.4ZM270.701 2614.97C273.396 2612.01 274.649 2608.18 274.649 2603.7H270.182C270.182 2607.32 269.191 2610 267.398 2611.96L270.701 2614.97ZM274.649 2603.7C274.649 2599.18 273.401 2595.34 270.687 2592.41L267.411 2595.45C269.186 2597.36 270.182 2600.03 270.182 2603.7H274.649ZM270.715 2592.44C268.038 2589.44 264.453 2588 260.204 2588V2592.47C263.349 2592.47 265.66 2593.49 267.383 2595.42L270.715 2592.44ZM260.204 2588C255.933 2588 252.315 2589.41 249.589 2592.35L252.865 2595.38C254.628 2593.48 256.994 2592.47 260.204 2592.47V2588ZM249.574 2592.36C246.909 2595.29 245.693 2599.16 245.693 2603.7H250.16C250.16 2599.97 251.145 2597.28 252.88 2595.37L249.574 2592.36ZM245.693 2603.7C245.693 2608.2 246.913 2612.06 249.561 2615.02L252.893 2612.05C251.14 2610.08 250.16 2607.38 250.16 2603.7H245.693ZM249.589 2615.05C252.315 2617.99 255.933 2619.4 260.204 2619.4V2614.93C256.994 2614.93 254.628 2613.92 252.865 2612.02L249.589 2615.05ZM344.104 2580.66H346.337V2578.43H344.104V2580.66ZM344.104 2589.71V2591.94H346.337V2589.71H344.104ZM331.826 2589.71V2587.47H329.593V2589.71H331.826ZM331.826 2627V2629.23H334.06V2627H331.826ZM320.539 2627H318.305V2629.23H320.539V2627ZM320.539 2589.71H322.772V2587.47H320.539V2589.71ZM308.261 2589.71H306.028V2591.94H308.261V2589.71ZM308.261 2580.66V2578.43H306.028V2580.66H308.261ZM341.87 2580.66V2589.71H346.337V2580.66H341.87ZM344.104 2587.47H331.826V2591.94H344.104V2587.47ZM329.593 2589.71V2627H334.06V2589.71H329.593ZM331.826 2624.77H320.539V2629.23H331.826V2624.77ZM322.772 2627V2589.71H318.305V2627H322.772ZM320.539 2587.47H308.261V2591.94H320.539V2587.47ZM310.495 2589.71V2580.66H306.028V2589.71H310.495ZM308.261 2582.9H344.104V2578.43H308.261V2582.9ZM364.356 2589.71V2587.47H362.123V2589.71H364.356ZM364.356 2599.08H362.123V2601.31H364.356V2599.08ZM379.472 2599.08H381.706V2596.84H379.472V2599.08ZM379.472 2607.79V2610.03H381.706V2607.79H379.472ZM364.356 2607.79V2605.56H362.123V2607.79H364.356ZM364.356 2617.96H362.123V2620.19H364.356V2617.96ZM381.453 2617.96H383.686V2615.72H381.453V2617.96ZM381.453 2627V2629.23H383.686V2627H381.453ZM353.069 2627H350.835V2629.23H353.069V2627ZM353.069 2580.66V2578.43H350.835V2580.66H353.069ZM381.453 2580.66H383.686V2578.43H381.453V2580.66ZM381.453 2589.71V2591.94H383.686V2589.71H381.453ZM362.123 2589.71V2599.08H366.59V2589.71H362.123ZM364.356 2601.31H379.472V2596.84H364.356V2601.31ZM377.239 2599.08V2607.79H381.706V2599.08H377.239ZM379.472 2605.56H364.356V2610.03H379.472V2605.56ZM362.123 2607.79V2617.96H366.59V2607.79H362.123ZM364.356 2620.19H381.453V2615.72H364.356V2620.19ZM379.219 2617.96V2627H383.686V2617.96H379.219ZM381.453 2624.77H353.069V2629.23H381.453V2624.77ZM355.303 2627V2580.66H350.835V2627H355.303ZM353.069 2582.9H381.453V2578.43H353.069V2582.9ZM379.219 2580.66V2589.71H383.686V2580.66H379.219ZM381.453 2587.47H364.356V2591.94H381.453V2587.47ZM393.137 2591.55L395.09 2592.64L395.095 2592.63L393.137 2591.55ZM401.388 2583.17L402.483 2585.12L402.491 2585.11L401.388 2583.17ZM427.593 2584.49L428.924 2582.7L428.924 2582.7L427.593 2584.49ZM435.448 2596.37V2598.61H438.346L437.608 2595.8L435.448 2596.37ZM423.039 2596.37L421.023 2597.33L421.63 2598.61H423.039V2596.37ZM419.078 2591.95L417.922 2593.86L417.933 2593.87L417.944 2593.87L419.078 2591.95ZM404.886 2594.06L406.554 2595.55L406.554 2595.55L404.886 2594.06ZM404.886 2613.47L403.219 2614.95L404.886 2613.47ZM419.078 2615.58L417.944 2613.66L417.933 2613.66L417.922 2613.67L419.078 2615.58ZM423.039 2611.16V2608.92H421.63L421.023 2610.2L423.039 2611.16ZM435.448 2611.16L437.608 2611.73L438.346 2608.92H435.448V2611.16ZM427.593 2623.04L428.911 2624.84L428.917 2624.84L428.924 2624.83L427.593 2623.04ZM401.388 2624.36L400.275 2626.3L400.289 2626.3L400.303 2626.31L401.388 2624.36ZM393.137 2615.98L395.09 2614.89L395.09 2614.89L393.137 2615.98ZM392.4 2603.77C392.4 2599.52 393.315 2595.83 395.09 2592.64L391.184 2590.47C388.998 2594.4 387.933 2598.86 387.933 2603.77H392.4ZM395.095 2592.63C396.879 2589.38 399.333 2586.89 402.483 2585.12L400.293 2581.22C396.402 2583.41 393.356 2586.51 391.179 2590.48L395.095 2592.63ZM402.491 2585.11C405.688 2583.3 409.328 2582.37 413.468 2582.37V2577.9C408.63 2577.9 404.217 2579 400.285 2581.23L402.491 2585.11ZM413.468 2582.37C418.553 2582.37 422.78 2583.7 426.263 2586.28L428.924 2582.7C424.574 2579.47 419.383 2577.9 413.468 2577.9V2582.37ZM426.263 2586.28C429.744 2588.87 432.088 2592.38 433.288 2596.94L437.608 2595.8C436.168 2590.33 433.275 2585.92 428.924 2582.7L426.263 2586.28ZM435.448 2594.14H423.039V2598.61H435.448V2594.14ZM425.055 2595.41C423.954 2593.1 422.342 2591.28 420.213 2590.03L417.944 2593.87C419.247 2594.64 420.275 2595.77 421.023 2597.33L425.055 2595.41ZM420.235 2590.04C418.178 2588.79 415.856 2588.2 413.336 2588.2V2592.67C415.127 2592.67 416.634 2593.08 417.922 2593.86L420.235 2590.04ZM413.336 2588.2C409.274 2588.2 405.832 2589.64 403.219 2592.58L406.554 2595.55C408.253 2593.64 410.444 2592.67 413.336 2592.67V2588.2ZM403.219 2592.58C400.614 2595.5 399.418 2599.31 399.418 2603.77H403.886C403.886 2600.12 404.847 2597.46 406.554 2595.55L403.219 2592.58ZM399.418 2603.77C399.418 2608.22 400.614 2612.03 403.219 2614.95L406.554 2611.98C404.847 2610.07 403.886 2607.41 403.886 2603.77H399.418ZM403.219 2614.95C405.832 2617.89 409.274 2619.33 413.336 2619.33V2614.87C410.444 2614.87 408.253 2613.89 406.554 2611.98L403.219 2614.95ZM413.336 2619.33C415.856 2619.33 418.178 2618.74 420.235 2617.49L417.922 2613.67C416.634 2614.45 415.127 2614.87 413.336 2614.87V2619.33ZM420.213 2617.5C422.342 2616.25 423.954 2614.43 425.055 2612.12L421.023 2610.2C420.275 2611.76 419.247 2612.89 417.944 2613.66L420.213 2617.5ZM423.039 2613.39H435.448V2608.92H423.039V2613.39ZM433.288 2610.59C432.088 2615.15 429.744 2618.66 426.263 2621.25L428.924 2624.83C433.275 2621.61 436.168 2617.2 437.608 2611.73L433.288 2610.59ZM426.276 2621.24C422.792 2623.78 418.561 2625.1 413.468 2625.1V2629.56C419.376 2629.56 424.561 2628.02 428.911 2624.84L426.276 2621.24ZM413.468 2625.1C409.319 2625.1 405.673 2624.18 402.473 2622.41L400.303 2626.31C404.232 2628.49 408.639 2629.56 413.468 2629.56V2625.1ZM402.501 2622.42C399.334 2620.6 396.874 2618.1 395.09 2614.89L391.184 2617.06C393.361 2620.98 396.401 2624.07 400.275 2626.3L402.501 2622.42ZM395.09 2614.89C393.315 2611.7 392.4 2608.01 392.4 2603.77H387.933C387.933 2608.67 388.998 2613.13 391.184 2617.06L395.09 2614.89ZM485.794 2580.66H488.028V2578.43H485.794V2580.66ZM485.794 2627V2629.23H488.028V2627H485.794ZM474.507 2627H472.273V2629.23H474.507V2627ZM474.507 2607.92H476.74V2605.69H474.507V2607.92ZM456.948 2607.92V2605.69H454.715V2607.92H456.948ZM456.948 2627V2629.23H459.182V2627H456.948ZM445.661 2627H443.427V2629.23H445.661V2627ZM445.661 2580.66V2578.43H443.427V2580.66H445.661ZM456.948 2580.66H459.182V2578.43H456.948V2580.66ZM456.948 2598.81H454.715V2601.05H456.948V2598.81ZM474.507 2598.81V2601.05H476.74V2598.81H474.507ZM474.507 2580.66V2578.43H472.273V2580.66H474.507ZM483.56 2580.66V2627H488.028V2580.66H483.56ZM485.794 2624.77H474.507V2629.23H485.794V2624.77ZM476.74 2627V2607.92H472.273V2627H476.74ZM474.507 2605.69H456.948V2610.16H474.507V2605.69ZM454.715 2607.92V2627H459.182V2607.92H454.715ZM456.948 2624.77H445.661V2629.23H456.948V2624.77ZM447.895 2627V2580.66H443.427V2627H447.895ZM445.661 2582.9H456.948V2578.43H445.661V2582.9ZM454.715 2580.66V2598.81H459.182V2580.66H454.715ZM456.948 2601.05H474.507V2596.58H456.948V2601.05ZM476.74 2598.81V2580.66H472.273V2598.81H476.74ZM474.507 2582.9H485.794V2578.43H474.507V2582.9Z" fill="black"/>
</g>
<defs>
<filter id="filter0_d" x="462" y="106" width="968" height="810" filterUnits="userSpaceOnUse" color-interpolation-filters="sRGB">
<feFlood flood-opacity="0" result="BackgroundImageFix"/>
<feColorMatrix in="SourceAlpha" type="matrix" values="0 0 0 0 0 0 0 0 0 0 0 0 0 0 0 0 0 0 127 0" result="hardAlpha"/>
<feOffset dx="4" dy="10"/>
<feGaussianBlur stdDeviation="5"/>
<feColorMatrix type="matrix" values="0 0 0 0 0 0 0 0 0 0 0 0 0 0 0 0 0 0 0.25 0"/>
<feBlend mode="normal" in2="BackgroundImageFix" result="effect1_dropShadow"/>
<feBlend mode="normal" in="SourceGraphic" in2="effect1_dropShadow" result="shape"/>
</filter>
<filter id="filter1_dd" x="464" y="988" width="956" height="246" filterUnits="userSpaceOnUse" color-interpolation-filters="sRGB">
<feFlood flood-opacity="0" result="BackgroundImageFix"/>
<feColorMatrix in="SourceAlpha" type="matrix" values="0 0 0 0 0 0 0 0 0 0 0 0 0 0 0 0 0 0 127 0" result="hardAlpha"/>
<feOffset dy="4"/>
<feGaussianBlur stdDeviation="2"/>
<feColorMatrix type="matrix" values="0 0 0 0 0 0 0 0 0 0 0 0 0 0 0 0 0 0 0.25 0"/>
<feBlend mode="normal" in2="BackgroundImageFix" result="effect1_dropShadow"/>
<feColorMatrix in="SourceAlpha" type="matrix" values="0 0 0 0 0 0 0 0 0 0 0 0 0 0 0 0 0 0 127 0" result="hardAlpha"/>
<feOffset dy="4"/>
<feGaussianBlur stdDeviation="2"/>
<feColorMatrix type="matrix" values="0 0 0 0 0 0 0 0 0 0 0 0 0 0 0 0 0 0 0.25 0"/>
<feBlend mode="normal" in2="effect1_dropShadow" result="effect2_dropShadow"/>
<feBlend mode="normal" in="SourceGraphic" in2="effect2_dropShadow" result="shape"/>
</filter>
<filter id="filter2_dd" x="1306" y="1007" width="86" height="86" filterUnits="userSpaceOnUse" color-interpolation-filters="sRGB">
<feFlood flood-opacity="0" result="BackgroundImageFix"/>
<feColorMatrix in="SourceAlpha" type="matrix" values="0 0 0 0 0 0 0 0 0 0 0 0 0 0 0 0 0 0 127 0" result="hardAlpha"/>
<feOffset dy="4"/>
<feGaussianBlur stdDeviation="2"/>
<feColorMatrix type="matrix" values="0 0 0 0 0 0 0 0 0 0 0 0 0 0 0 0 0 0 0.25 0"/>
<feBlend mode="normal" in2="BackgroundImageFix" result="effect1_dropShadow"/>
<feColorMatrix in="SourceAlpha" type="matrix" values="0 0 0 0 0 0 0 0 0 0 0 0 0 0 0 0 0 0 127 0" result="hardAlpha"/>
<feOffset dy="4"/>
<feGaussianBlur stdDeviation="2"/>
<feColorMatrix type="matrix" values="0 0 0 0 0 0 0 0 0 0 0 0 0 0 0 0 0 0 0.25 0"/>
<feBlend mode="normal" in2="effect1_dropShadow" result="effect2_dropShadow"/>
<feBlend mode="normal" in="SourceGraphic" in2="effect2_dropShadow" result="shape"/>
</filter>
<filter id="filter3_dd" x="1306" y="1115" width="86" height="86" filterUnits="userSpaceOnUse" color-interpolation-filters="sRGB">
<feFlood flood-opacity="0" result="BackgroundImageFix"/>
<feColorMatrix in="SourceAlpha" type="matrix" values="0 0 0 0 0 0 0 0 0 0 0 0 0 0 0 0 0 0 127 0" result="hardAlpha"/>
<feOffset dy="4"/>
<feGaussianBlur stdDeviation="2"/>
<feColorMatrix type="matrix" values="0 0 0 0 0 0 0 0 0 0 0 0 0 0 0 0 0 0 0.25 0"/>
<feBlend mode="normal" in2="BackgroundImageFix" result="effect1_dropShadow"/>
<feColorMatrix in="SourceAlpha" type="matrix" values="0 0 0 0 0 0 0 0 0 0 0 0 0 0 0 0 0 0 127 0" result="hardAlpha"/>
<feOffset dy="4"/>
<feGaussianBlur stdDeviation="2"/>
<feColorMatrix type="matrix" values="0 0 0 0 0 0 0 0 0 0 0 0 0 0 0 0 0 0 0.25 0"/>
<feBlend mode="normal" in2="effect1_dropShadow" result="effect2_dropShadow"/>
<feBlend mode="normal" in="SourceGraphic" in2="effect2_dropShadow" result="shape"/>
</filter>
<filter id="filter4_dd" x="720.02" y="150.336" width="441.306" height="47.042" filterUnits="userSpaceOnUse" color-interpolation-filters="sRGB">
<feFlood flood-opacity="0" result="BackgroundImageFix"/>
<feColorMatrix in="SourceAlpha" type="matrix" values="0 0 0 0 0 0 0 0 0 0 0 0 0 0 0 0 0 0 127 0" result="hardAlpha"/>
<feOffset dy="4"/>
<feGaussianBlur stdDeviation="2"/>
<feColorMatrix type="matrix" values="0 0 0 0 0 0 0 0 0 0 0 0 0 0 0 0 0 0 0.25 0"/>
<feBlend mode="normal" in2="BackgroundImageFix" result="effect1_dropShadow"/>
<feColorMatrix in="SourceAlpha" type="matrix" values="0 0 0 0 0 0 0 0 0 0 0 0 0 0 0 0 0 0 127 0" result="hardAlpha"/>
<feOffset dy="4"/>
<feGaussianBlur stdDeviation="2"/>
<feColorMatrix type="matrix" values="0 0 0 0 0 0 0 0 0 0 0 0 0 0 0 0 0 0 0.25 0"/>
<feBlend mode="normal" in2="effect1_dropShadow" result="effect2_dropShadow"/>
<feBlend mode="normal" in="SourceGraphic" in2="effect2_dropShadow" result="shape"/>
</filter>
<linearGradient id="paint0_linear" x1="25.8592" y1="2600.5" x2="500.498" y2="2637.79" gradientUnits="userSpaceOnUse">
<stop stop-color="#3794F0"/>
<stop offset="1" stop-color="#050505" stop-opacity="0.5"/>
</linearGradient>
<clipPath id="clip0">
<rect width="500" height="500" fill="white" transform="translate(0 2351)"/>
</clipPath>
</defs>
</svg>
